<?xml version="1.0" encoding="UTF-8"?> <svg xmlns="http://www.w3.org/2000/svg" width="130" height="81" viewBox="0 0 130 81" fill="none"><rect y="28.7773" width="124.847" height="52.2754" rx="13.582" transform="rotate(-6.55664 0 28.7773)" fill="#212121"></rect><path d="M28.0141 36.7955L29.8338 52.6275L26.4605 53.0152L25.0673 40.8938L21.7527 43.5761L21.365 40.2028L24.9107 37.1522L28.0141 36.7955ZM43.2827 51.0817L39.9769 51.4616L39.6176 48.3357L32.0614 49.2042L31.7409 46.4156L37.1677 35.7434L41.463 35.2497L42.5978 45.1222L44.7117 44.8792L45.0374 47.7128L42.9234 47.9558L43.2827 51.0817ZM35.0641 45.9881L39.2919 45.5022L38.563 39.1604L35.0641 45.9881ZM51.1431 44.6869C49.7638 44.8454 48.5035 44.5194 47.3622 43.7087C46.2341 42.8814 45.5831 41.7106 45.409 40.1964C45.2212 38.5622 45.6067 37.1583 46.5655 35.9848C47.5394 34.8095 48.8883 34.1228 50.6125 33.9246C52.6964 33.6851 54.4067 34.2253 55.7432 35.5451C57.0798 36.865 57.8894 38.7543 58.172 41.2131C58.4839 43.9267 58.1145 46.0654 57.0638 47.6293C56.0264 49.1764 54.5182 50.0637 52.5392 50.2912C50.98 50.4704 49.6424 50.1988 48.5264 49.4764C47.4254 48.7523 46.7218 47.785 46.4156 46.5746L49.7664 46.1895C49.9311 46.5655 50.2248 46.8735 50.6473 47.1136C51.0698 47.3536 51.5885 47.4383 52.2031 47.3677C54.2721 47.1299 55.183 45.4074 54.9359 42.2002C54.2514 43.646 52.9872 44.4749 51.1431 44.6869ZM52.9903 37.3654C52.4404 36.9425 51.7981 36.7733 51.0635 36.8577C50.3289 36.9422 49.7493 37.2518 49.3247 37.7867C48.9133 38.3049 48.7499 38.9313 48.8343 39.666C48.9187 40.4006 49.2275 40.9727 49.7607 41.3823C50.3089 41.7902 50.9503 41.952 51.6849 41.8675C52.4045 41.7848 52.9784 41.491 53.4065 40.9861C53.8478 40.4645 54.0254 39.8288 53.9392 39.0792C53.8565 38.3596 53.5402 37.7883 52.9903 37.3654ZM64.9986 34.5497C65.9956 32.9161 67.4687 31.9872 69.4177 31.7632C71.3667 31.5392 73.0046 32.1105 74.3313 33.477C75.6731 34.8419 76.4852 36.7537 76.7678 39.2124C77.0504 41.6712 76.6932 43.7174 75.6961 45.351C74.714 46.983 73.2484 47.9109 71.2994 48.1349C69.3504 48.359 67.705 47.7886 66.3633 46.4237C65.0366 45.0572 64.2319 43.1445 63.9493 40.6857C63.6667 38.227 64.0165 36.1816 64.9986 34.5497ZM68.5639 43.9606C69.1839 44.8615 69.9811 45.256 70.9557 45.144C71.9302 45.032 72.6171 44.4669 73.0166 43.4488C73.4161 42.4307 73.527 41.1495 73.3496 39.6053C73.1721 38.0611 72.7733 36.8385 72.1533 35.9376C71.5333 35.0367 70.736 34.6422 69.7615 34.7542C68.787 34.8662 68.1 35.4313 67.7005 36.4494C67.3161 37.4658 67.2126 38.7461 67.3901 40.2903C67.5676 41.8345 67.9588 43.0579 68.5639 43.9606ZM79.3895 32.8957C80.3866 31.262 81.8597 30.3332 83.8087 30.1092C85.7577 29.8852 87.3956 30.4564 88.7223 31.823C90.064 33.1878 90.8762 35.0996 91.1588 37.5584C91.4414 40.0171 91.0842 42.0633 90.0871 43.697C89.105 45.3289 87.6394 46.2569 85.6904 46.4809C83.7414 46.7049 82.096 46.1345 80.7543 44.7697C79.4276 43.4031 78.6229 41.4904 78.3403 39.0317C78.0577 36.5729 78.4074 34.5276 79.3895 32.8957ZM82.9548 42.3065C83.5748 43.2074 84.3721 43.6019 85.3466 43.4899C86.3211 43.3779 87.0081 42.8128 87.4076 41.7947C87.807 40.7766 87.918 39.4955 87.7405 37.9513C87.563 36.407 87.1643 35.1845 86.5443 34.2835C85.9242 33.3826 85.127 32.9881 84.1525 33.1002C83.1779 33.2122 82.491 33.7772 82.0915 34.7953C81.707 35.8117 81.6036 37.092 81.781 38.6362C81.9585 40.1804 82.3498 41.4039 82.9548 42.3065ZM93.7805 31.2416C94.7776 29.608 96.2506 28.6791 98.1996 28.4551C100.149 28.2311 101.787 28.8024 103.113 30.1689C104.455 31.5338 105.267 33.4456 105.55 35.9043C105.832 38.3631 105.475 40.4093 104.478 42.0429C103.496 43.6748 102.03 44.6028 100.081 44.8268C98.1324 45.0508 96.487 44.4804 95.1453 43.1156C93.8185 41.749 93.0138 39.8364 92.7312 37.3776C92.4486 34.9189 92.7984 32.8735 93.7805 31.2416ZM97.3458 40.6525C97.9658 41.5534 98.7631 41.9479 99.7376 41.8358C100.712 41.7238 101.399 41.1588 101.799 40.1407C102.198 39.1226 102.309 37.8414 102.131 36.2972C101.954 34.753 101.555 33.5304 100.935 32.6295C100.315 31.7286 99.5179 31.3341 98.5434 31.4461C97.5689 31.5581 96.8819 32.1232 96.4825 33.1413C96.098 34.1576 95.9945 35.4379 96.172 36.9822C96.3495 38.5264 96.7408 39.7498 97.3458 40.6525Z" fill="white"></path><path d="M29.1142 64.9546C29.7884 64.8771 30.1725 64.5135 30.2664 63.864L32.0921 63.6541C32.1174 64.4142 31.878 65.0716 31.3739 65.6264C30.8699 66.1812 30.1757 66.5094 29.2913 66.6111C28.2668 66.7288 27.4103 66.4945 26.7219 65.9083C26.0324 65.3132 25.6278 64.4947 25.508 63.4527C25.3893 62.4194 25.5981 61.5348 26.1346 60.7989C26.6701 60.0542 27.45 59.623 28.4745 59.5052C29.3677 59.4025 30.1144 59.5696 30.7147 60.0063C31.3149 60.443 31.6962 61.0202 31.8586 61.738L30.0197 61.9493C29.7556 61.3497 29.304 61.0867 28.6648 61.1602C28.2182 61.2115 27.8837 61.4274 27.6612 61.8078C27.4378 62.1795 27.3593 62.6543 27.4257 63.2323C27.4921 63.8102 27.6763 64.2548 27.9783 64.5661C28.289 64.8764 28.6676 65.0059 29.1142 64.9546ZM37.0655 58.6775L39.1145 58.442L36.6107 68.1519L34.5748 68.3859L35.2899 65.5756L31.9955 59.2602L34.0576 59.0232L36.0577 63.2249L37.0655 58.6775ZM39.9919 58.3411L42.4481 58.0588L44.7766 62.2228L46.0996 57.6391L48.5032 57.3629L49.2837 64.1535L47.458 64.3633L46.9628 60.0552L45.6656 64.5161L44.3784 64.664L42.1045 60.6269L42.5982 64.9219L40.7724 65.1317L39.9919 58.3411Z" fill="white"></path><path d="M58.0641 63.1429L57.2836 56.3523L60.5148 55.9809C61.2766 55.8933 61.8775 55.9884 62.3175 56.2661C62.7576 56.5438 63.0078 56.9453 63.0682 57.4707C63.1104 57.8385 63.0498 58.1604 62.8864 58.4365C62.7307 58.7028 62.5144 58.9051 62.2375 59.0434C62.6086 59.1072 62.9285 59.2656 63.1971 59.5187C63.4647 59.7629 63.6237 60.104 63.674 60.5418C63.7394 61.111 63.5739 61.6002 63.1773 62.0096C62.7807 62.4189 62.1797 62.6699 61.3741 62.7625L58.0641 63.1429ZM60.8161 59.992L59.6208 60.1293L59.7869 61.5741L60.9822 61.4368C61.2536 61.4056 61.4562 61.3157 61.59 61.1673C61.7237 61.0188 61.7775 60.8308 61.7514 60.6031C61.697 60.1303 61.3853 59.9265 60.8161 59.992ZM60.3813 57.367L59.3174 57.4893L59.4699 58.8159L60.5338 58.6936C60.7702 58.6664 60.9475 58.5884 61.0658 58.4594C61.1918 58.3207 61.2428 58.1463 61.2186 57.9362C61.1683 57.4983 60.8892 57.3086 60.3813 57.367ZM67.2373 55.2082L69.6934 54.9259L72.0219 59.0899L73.3449 54.5062L75.7485 54.23L76.529 61.0206L74.7033 61.2304L74.2081 56.9223L72.9109 61.3832L71.6237 61.5312L69.3498 57.494L69.8435 61.789L68.0177 61.9989L67.2373 55.2082ZM84.0088 57.273L79.4248 57.7999L79.4279 57.8262C79.4762 58.2465 79.6565 58.5806 79.9689 58.8286C80.2901 59.0756 80.6784 59.1729 81.1337 59.1206C81.4314 59.0864 81.6739 58.9964 81.8612 58.8507C82.0486 58.7049 82.1599 58.5546 82.1953 58.3997L84.0473 58.1869C84.0057 58.7506 83.7512 59.2767 83.2839 59.7651C82.8243 60.2438 82.1523 60.534 81.2679 60.6356C80.2259 60.7554 79.3583 60.5401 78.6651 59.9899C77.971 59.4309 77.561 58.6041 77.4352 57.5096C77.3094 56.415 77.5113 55.509 78.041 54.7916C78.5795 54.0732 79.3479 53.6566 80.3461 53.5418C81.3181 53.4301 82.1287 53.6519 82.7781 54.2072C83.4275 54.7625 83.8126 55.5655 83.9334 56.6163L84.0088 57.273ZM80.5313 55.0377C80.1461 55.082 79.8439 55.232 79.6249 55.4879C79.4049 55.735 79.2912 56.0586 79.284 56.4586L81.9897 56.1477C81.9192 55.7654 81.7526 55.474 81.49 55.2735C81.2274 55.073 80.9079 54.9944 80.5313 55.0377ZM88.4778 58.1301C89.1521 58.0526 89.5362 57.6891 89.6301 57.0395L91.4558 56.8296C91.4811 57.5897 91.2417 58.2472 90.7376 58.8019C90.2336 59.3567 89.5393 59.6849 88.6549 59.7866C87.6304 59.9043 86.774 59.6701 86.0855 59.0838C85.3961 58.4888 84.9915 57.6702 84.8717 56.6282C84.7529 55.5949 84.9618 54.7103 85.4983 53.9744C86.0337 53.2297 86.8137 52.7985 87.8382 52.6807C88.7314 52.5781 89.4781 52.7451 90.0783 53.1818C90.6786 53.6185 91.0599 54.1958 91.2222 54.9135L89.3834 55.1248C89.1193 54.5253 88.6676 54.2622 88.0284 54.3357C87.5818 54.387 87.2473 54.6029 87.0249 54.9834C86.8015 55.3551 86.7229 55.8299 86.7894 56.4078C86.8558 56.9857 87.04 57.4303 87.3419 57.7416C87.6526 58.0519 88.0313 58.1814 88.4778 58.1301ZM98.5084 58.4944L96.617 58.7117L96.3785 56.6365L95.5642 56.7301L94.4761 58.9578L92.3614 59.2009L93.6714 56.5883C92.835 56.2586 92.364 55.634 92.2583 54.7146C92.1788 54.0228 92.3372 53.4323 92.7334 52.9432C93.1385 52.453 93.7569 52.1602 94.5888 52.0645L97.7279 51.7037L98.5084 58.4944ZM94.1512 54.5103C94.1814 54.773 94.2936 54.9775 94.4879 55.1237C94.6821 55.2699 94.9281 55.326 95.2258 55.2917L96.2109 55.1785L96.0086 53.4185L95.0235 53.5317C94.7258 53.5659 94.499 53.6763 94.343 53.8628C94.1859 54.0405 94.122 54.2564 94.1512 54.5103ZM107.117 55.8281L107.5 59.1643L105.661 59.3757L105.468 57.6944L100.162 58.3043L99.3813 51.5137L101.299 51.2933L101.889 56.4289L104.24 56.1587L103.65 51.0231L105.568 50.8027L106.158 55.9383L107.117 55.8281Z" fill="#2CCD9B"></path><path d="M13.5686 13.6677L13.5512 13.6697C13.9702 13.939 14.3095 14.2821 14.5691 14.6991C14.8403 15.1147 14.9807 15.5689 14.9904 16.0617C15.0116 16.5531 14.8695 17.0045 14.564 17.4159C14.2072 17.892 13.6155 18.3187 12.7887 18.696C12.128 18.9836 11.3564 19.2781 10.4739 19.5795C8.92404 20.1105 7.33828 20.5339 5.71663 20.8497C5.56843 20.8903 5.41669 20.8489 5.26142 20.7257C5.11641 20.5895 5.00489 20.4377 4.92684 20.2703C4.84746 20.0913 4.80937 19.9134 4.81256 19.7367C4.82603 19.547 4.89972 19.4209 5.03364 19.3585C4.73836 17.711 4.30123 15.239 3.72226 11.9426C3.47402 12.1358 3.33963 12.2453 3.31909 12.2712C3.15569 12.384 3.00102 12.4195 2.85509 12.3775C2.72076 12.3341 2.58556 12.2321 2.44949 12.0713C2.38079 11.9852 2.31589 11.8809 2.25478 11.7586C2.20395 11.6234 2.16987 11.4803 2.15252 11.3294C2.14677 11.1772 2.18698 11.0668 2.27315 10.9981C2.59328 10.7143 2.96497 10.4188 3.38821 10.1114C3.38113 9.9476 3.42448 9.81327 3.51825 9.70842C3.61068 9.59196 3.73567 9.55407 3.89321 9.59475C3.96417 9.59834 4.03134 9.62002 4.0947 9.65976C4.64694 9.34933 5.18843 9.09892 5.7192 8.90854C7.10926 8.41944 8.19815 8.27659 8.98585 8.47997C9.616 8.64268 10.0934 9.01109 10.4181 9.58519C10.7531 10.1464 10.8386 10.7362 10.6746 11.3548C10.5485 11.7926 10.2768 12.2413 9.85926 12.7008C11.4165 12.7452 12.6529 13.0674 13.5686 13.6677ZM6.55885 10.3818C5.93658 10.5944 5.33906 10.8689 4.76629 11.2052C4.84555 11.69 4.98139 12.4622 5.1738 13.5218C6.20091 13.2509 7.1203 12.81 7.93197 12.1993C8.44138 11.8232 8.85328 11.4172 9.16766 10.9813C9.34853 10.7136 9.45797 10.4893 9.49597 10.3086C9.50357 10.2724 9.50604 10.2427 9.50337 10.2195C9.49937 10.1847 9.4967 10.1615 9.49536 10.1499C9.49269 10.1267 9.49136 10.1151 9.49136 10.1151C9.29593 9.94942 8.87907 9.90329 8.24079 9.97669C7.71722 10.0251 7.15658 10.1602 6.55885 10.3818ZM12.6347 16.897C12.9539 16.7074 13.2343 16.487 13.4759 16.2358C13.729 15.9833 13.8222 15.7198 13.7554 15.4453C13.7291 15.3189 13.657 15.2038 13.5393 15.0997C13.4331 14.9943 13.2818 14.9059 13.0854 14.8344C12.8993 14.75 12.7514 14.6906 12.6416 14.6562C12.5434 14.6204 12.4033 14.5777 12.2212 14.5281C11.4451 14.3234 10.652 14.2265 9.84194 14.2373C8.28244 14.2756 6.83907 14.6591 5.51185 15.3879C5.65302 16.2065 5.87125 17.4396 6.16654 19.0871C7.5985 18.7578 8.95216 18.3611 10.2275 17.897C11.3792 17.4823 12.1816 17.149 12.6347 16.897ZM23.2829 15.1962C23.4026 15.1119 23.5302 15.0973 23.6659 15.1522C23.8015 15.2072 23.918 15.2996 24.0153 15.4295C24.1241 15.5581 24.2053 15.7016 24.2588 15.8601C24.3239 16.0172 24.3419 16.1739 24.3128 16.3301C24.294 16.4734 24.2241 16.5814 24.1032 16.6541C22.4906 17.6626 20.7597 18.2556 18.9105 18.4329C17.9576 18.5308 17.2142 18.4575 16.6805 18.2132C16.3329 18.0532 16.0339 17.8054 15.7837 17.4697C15.5334 17.1339 15.3501 16.767 15.2337 16.3688C15.1237 15.9229 15.089 15.4683 15.1298 15.005C15.1693 14.5301 15.2766 14.0827 15.4517 13.6628C15.6384 13.2415 15.8885 12.86 16.202 12.5182C16.4936 12.1907 16.826 11.9114 17.1992 11.6804C17.584 11.448 18.0007 11.2884 18.4493 11.2015C18.8966 11.103 19.323 11.1304 19.7287 11.2837C20.0723 11.4088 20.3693 11.6392 20.6195 11.9749C20.8801 12.2977 21.0498 12.6486 21.1286 13.0276C21.2191 13.4052 21.185 13.7736 21.0264 14.1329C20.8781 14.4792 20.6011 14.7286 20.1953 14.8811C20.0266 14.9475 19.8601 14.9314 19.6959 14.8327C19.5433 14.7326 19.4157 14.5944 19.3131 14.4181C19.2301 14.3101 19.1804 14.1335 19.164 13.8885C19.1462 13.6318 19.2159 13.471 19.3731 13.4058C19.498 13.368 19.6351 13.2816 19.7842 13.1469C19.9436 12.9992 19.9896 12.8881 19.9223 12.8135C19.8652 12.726 19.6561 12.6972 19.295 12.7269C19.0151 12.7474 18.7573 12.8064 18.5216 12.9041C18.1056 13.0695 17.7279 13.3128 17.3886 13.6341C17.0595 13.9423 16.8067 14.3007 16.6303 14.709C16.5267 14.9326 16.4424 15.1715 16.3776 15.4259C16.3244 15.679 16.3145 15.9506 16.3478 16.2407C16.3915 16.5179 16.5244 16.7025 16.7467 16.7945C17.0323 16.9263 17.5245 16.9637 18.2235 16.9069C18.8051 16.8518 19.3878 16.7554 19.9717 16.6177C21.1033 16.3347 22.207 15.8609 23.2829 15.1962ZM32.7282 14.8332C32.8621 14.7708 32.9969 14.7671 33.1326 14.822C33.2798 14.8756 33.4028 14.9732 33.5013 15.1147C33.5986 15.2446 33.674 15.3888 33.7275 15.5473C33.7926 15.7044 33.8099 15.8553 33.7795 15.9999C33.7594 16.1316 33.6882 16.2279 33.5658 16.289C32.3967 16.8586 31.1959 17.2553 29.9635 17.4794C28.4191 17.751 27.2457 17.7214 26.4433 17.3903C25.6164 17.0503 25.0495 16.4159 24.7428 15.4869C24.5643 15.3664 24.4211 15.1947 24.3132 14.9719C24.2039 14.7376 24.1625 14.5307 24.1889 14.3513C24.2256 14.1589 24.3432 14.0572 24.5418 14.0461C24.5617 13.5029 24.6875 13.0122 24.9193 12.574C25.3137 11.8114 25.9632 11.1194 26.8677 10.498C27.8803 9.79361 28.8467 9.5061 29.767 9.63544C30.2575 9.70838 30.6988 9.91632 31.091 10.2593C31.4819 10.5906 31.7671 10.9752 31.9468 11.4131C32.1265 11.851 32.1625 12.3173 32.0548 12.8118C31.9573 13.2933 31.6983 13.6994 31.2777 14.0299C31.0397 14.2102 30.7417 14.3797 30.3837 14.5384C30.0244 14.6856 29.7306 14.7899 29.5025 14.8514C29.286 14.9116 28.9555 15.0025 28.5109 15.1242C27.6887 15.3363 26.8346 15.4757 25.9486 15.5423C25.9615 15.5526 25.9693 15.5693 25.972 15.5925C25.9849 15.6028 25.992 15.6137 25.9934 15.6253C26.2566 15.9714 26.8274 16.1291 27.7058 16.0987C29.4291 16.0534 31.1032 15.6315 32.7282 14.8332ZM27.0725 12.4322C26.5376 12.8935 26.1603 13.3955 25.9405 13.9382C26.5555 13.8675 27.1318 13.7659 27.6692 13.6336C28.7919 13.3751 29.6222 13.0797 30.1601 12.7474C30.4021 12.602 30.6046 12.42 30.7676 12.2013C30.9408 11.9698 30.9626 11.7497 30.8327 11.5412C30.6784 11.3238 30.4289 11.1996 30.0844 11.1687C29.7514 11.1365 29.431 11.1615 29.123 11.244C28.4721 11.4129 27.7887 11.809 27.0725 12.4322ZM38.9031 8.47899C39.1933 8.44562 39.4429 8.62269 39.6521 9.01019C39.8756 9.41956 39.8928 9.7233 39.704 9.92139C39.641 9.98743 39.5573 10.0265 39.4529 10.0385L36.5806 10.3688C35.8146 10.4568 35.3853 10.5062 35.2924 10.5169C34.9599 10.5904 34.7947 10.7388 34.7968 10.9619C34.7945 11.0445 34.8014 11.1554 34.8174 11.2947C34.8437 11.421 34.8622 11.5306 34.8729 11.6234C34.8952 11.7149 34.9201 11.8296 34.9477 11.9676C34.9856 12.0926 35.0092 12.1957 35.0186 12.2769C35.0778 12.5876 35.1674 13.0594 35.2872 13.6923C35.3994 14.3614 35.5662 15.3006 35.7876 16.5098C35.8192 16.6825 35.7901 16.8387 35.7003 16.9784C35.6106 17.1181 35.4753 17.1689 35.2946 17.1309C35.1138 17.0929 34.9541 16.9819 34.8153 16.798C34.6882 16.6127 34.6075 16.4221 34.5732 16.2261C34.444 15.5119 34.2445 14.4413 33.9746 13.0143C33.9559 12.8518 33.9149 12.5978 33.8517 12.2524C33.7884 11.9069 33.7416 11.6536 33.7114 11.4924C33.6957 11.4589 33.6735 11.3674 33.6445 11.2179C33.6142 11.0568 33.5957 10.9472 33.5891 10.8892C33.5824 10.8311 33.5724 10.7441 33.559 10.628C33.5444 10.5004 33.5375 10.3895 33.5384 10.2953C33.5509 10.1998 33.5641 10.1101 33.578 10.0262C33.5995 9.90611 33.6288 9.8028 33.6658 9.71622C33.7016 9.61804 33.7567 9.53527 33.8313 9.4679C33.9045 9.38893 33.9675 9.3229 34.0202 9.2698C34.0729 9.21671 34.1559 9.17189 34.2693 9.13533C34.3929 9.08583 34.4773 9.05261 34.5224 9.03567C34.5777 9.00579 34.6809 8.98217 34.8317 8.96482C34.9929 8.93453 35.0908 8.91739 35.1257 8.91338C35.1605 8.90938 35.2649 8.89737 35.439 8.87735C35.6131 8.85733 35.7059 8.84666 35.7175 8.84532C36.0773 8.80395 36.6111 8.74256 37.319 8.66115C38.0269 8.57975 38.555 8.51902 38.9031 8.47899ZM47.7647 10.7582C48.1184 11.4819 48.1857 12.2208 47.9667 12.975C47.7593 13.7279 47.3172 14.3314 46.6404 14.7855C46.0203 15.2213 45.2962 15.4692 44.4683 15.5292C43.6506 15.5762 42.9088 15.4145 42.243 15.0443C41.5295 14.6677 40.972 14.1145 40.5706 13.3846C40.1692 12.6547 40.0231 11.8954 40.1323 11.1068C40.2455 10.353 40.5727 9.72155 41.1138 9.21249C41.6652 8.69049 42.3201 8.40353 43.0785 8.3516C43.348 8.34411 43.5861 8.52251 43.7926 8.8868C44.5858 8.83087 45.2387 8.88512 45.7515 9.04957C46.7047 9.36326 47.3758 9.93282 47.7647 10.7582ZM46.7827 12.0353C46.8591 11.7795 46.8737 11.5486 46.8265 11.3423C46.8198 11.2843 46.808 11.2328 46.7911 11.1877C46.7728 11.131 46.7235 11.0602 46.6432 10.9754C46.4826 10.8057 46.2796 10.6762 46.0341 10.5868C45.7989 10.4845 45.5053 10.436 45.1531 10.4412C44.8112 10.4335 44.5526 10.4339 44.3772 10.4423C44.2133 10.4494 43.94 10.4749 43.557 10.519C43.3133 10.547 43.0844 10.3969 42.8703 10.0688C42.4542 10.2342 42.1075 10.4916 41.8302 10.841C41.5516 11.1788 41.3963 11.567 41.3645 12.0057C41.3447 12.2432 41.3636 12.4585 41.4211 12.6518C41.4773 12.8335 41.5592 12.9828 41.6667 13.0998C41.9544 13.4548 42.3114 13.6959 42.7376 13.8233C43.2852 13.9837 43.8471 14.0132 44.4234 13.9116C45.0099 13.7972 45.5295 13.561 45.9822 13.2032C46.3925 12.8856 46.6594 12.4963 46.7827 12.0353ZM64.1863 9.82226L64.2037 9.82025C64.5075 10.3145 64.6197 10.8307 64.5405 11.3689C64.46 11.8956 64.2005 12.3487 63.7621 12.7284C63.483 12.9604 63.1426 13.17 62.7408 13.3573C62.3391 13.5446 61.9906 13.6846 61.6956 13.7774C61.3992 13.8585 61.0048 13.9568 60.5125 14.0722C59.1747 14.4024 57.7847 14.5857 56.3426 14.6222C56.0601 14.6195 55.8136 14.4185 55.6031 14.0194C55.3912 13.6087 55.3752 13.3166 55.5552 13.143C55.6079 13.0899 55.6871 13.0632 55.7929 13.0628C57.2944 13.0312 58.7417 12.8354 60.1348 12.4753C60.5124 12.3848 60.7921 12.3115 60.9738 12.2553C61.1555 12.1992 61.4157 12.1104 61.7545 11.9892C62.0933 11.8679 62.3766 11.7236 62.6043 11.5563C62.832 11.389 63.0157 11.1974 63.1555 10.9814C63.2761 10.8029 63.3304 10.6615 63.3183 10.557C63.3166 10.4396 63.2323 10.32 63.0654 10.1981C62.671 9.93772 62.1314 9.84691 61.4467 9.92565C61.4002 9.93099 61.3023 9.94813 61.1527 9.97709C60.3405 10.7878 59.2946 11.3549 58.0148 11.6784C57.8666 11.719 57.72 11.6712 57.575 11.535C57.4287 11.3872 57.3165 11.2296 57.2384 11.0622C57.0538 10.6836 57.0843 10.3862 57.3298 10.1698C58.3907 9.27172 59.3902 8.70994 60.3285 8.48446C60.5893 8.19578 60.7681 7.91064 60.8651 7.62904C60.8919 7.55541 60.9116 7.47084 60.9241 7.37533C60.9357 7.37399 60.9375 7.33851 60.9295 7.26888C60.9166 7.25861 60.8978 7.249 60.8733 7.24007C60.8474 7.21953 60.8222 7.20479 60.7976 7.19585C60.7718 7.17531 60.753 7.16571 60.7414 7.16704C60.0863 6.88962 59.1355 7.05775 57.8891 7.67142C56.9427 8.13301 56.1393 8.71338 55.479 9.41254C55.2374 9.66373 54.9625 9.62479 54.6542 9.29573C54.3588 8.97693 54.246 8.66066 54.3158 8.34692C54.3412 8.26168 54.3803 8.19251 54.433 8.13942C55.3774 7.14892 56.4794 6.40486 57.7392 5.90723C59.3699 5.26112 60.6165 5.3647 61.4789 6.21797C62.0888 6.81808 62.2909 7.55327 62.0853 8.42354C63.0341 8.59663 63.7345 9.06287 64.1863 9.82226ZM72.5834 7.88653C72.837 8.76278 73.0256 9.99339 73.1491 11.5784C73.1762 11.9162 73.0879 12.1204 72.8844 12.1909C72.6924 12.26 72.4695 12.1621 72.2157 11.8974C71.1664 12.7941 69.9941 13.3875 68.6988 13.6775C67.1057 14.0371 65.9669 13.7977 65.2826 12.9592C65.0635 12.6904 64.9166 12.384 64.8417 12.0398C64.7669 11.6957 64.7746 11.3538 64.8649 11.0142C65.028 10.4898 65.4192 10.0568 66.0384 9.7151C67.0156 9.21469 68.0029 9.00708 69.0005 9.09226C69.998 9.17745 70.9365 9.51635 71.816 10.109C71.7475 9.41133 71.6556 8.81633 71.5402 8.32398C71.4903 8.09455 71.4457 7.91153 71.4065 7.77494C71.3789 7.63701 71.324 7.46694 71.242 7.26472C71.1702 7.04956 71.0727 6.86675 70.9496 6.71629C70.8381 6.56449 70.7125 6.44371 70.5728 6.35395C70.2716 6.18869 69.9179 6.12941 69.5117 6.17612C69.1158 6.20989 68.775 6.31376 68.4893 6.48772C67.8496 6.85525 67.3256 7.46228 66.9173 8.30882C66.756 8.64485 66.5079 8.68515 66.1728 8.42972C65.8506 8.18456 65.6876 7.8917 65.6837 7.55115L65.7253 7.29943C66.2886 6.16462 66.9693 5.3867 67.7675 4.96567C68.2001 4.73954 68.6801 4.61966 69.2077 4.60603C69.7353 4.5924 70.213 4.70796 70.641 4.95271C71.5317 5.43821 72.1792 6.41615 72.5834 7.88653ZM68.2689 12.0867C69.1505 11.8794 69.9766 11.4964 70.7472 10.9374C70.2795 10.756 69.803 10.6521 69.3179 10.6255C68.6676 10.5945 68.061 10.6878 67.4981 10.9054C66.7754 11.1649 66.3173 11.4762 66.1239 11.8395C66.1047 11.8769 66.0734 11.9628 66.0301 12.0972C66.0301 12.0972 66.0308 12.103 66.0321 12.1146C66.1588 12.1941 66.3177 12.2464 66.5087 12.2714C66.9282 12.3408 67.515 12.2792 68.2689 12.0867Z" fill="black"></path></svg> 