<?xml version="1.0" encoding="UTF-8"?> <svg xmlns="http://www.w3.org/2000/svg" width="40" height="40" viewBox="0 0 40 40" fill="none"><rect width="40" height="40" rx="10.9091" fill="#F8F8F8"></rect><path fill-rule="evenodd" clip-rule="evenodd" d="M21.2951 9.50276C19.5632 9.88586 18.418 10.9884 17.9086 12.7631C17.7217 13.4142 17.6714 14.0059 17.6711 15.5587L17.6708 17.0242L16.3628 17.0249C14.9141 17.0258 14.8524 17.0377 14.7574 17.3368C14.6772 17.5889 14.6772 20.8165 14.7574 21.0704C14.8464 21.3525 14.9694 21.3754 16.4108 21.3788L17.6708 21.3817V25.8401V30.2985L17.7866 30.4441L17.9025 30.5896L19.6227 30.6056C21.4766 30.623 21.6485 30.6047 21.7432 30.3801C21.7844 30.2825 21.7991 29.0716 21.7991 25.7907V21.3338L23.4055 21.3188C24.8728 21.3052 25.0194 21.2958 25.0976 21.2112C25.1768 21.1256 25.1833 20.9713 25.1833 19.1766V17.2346L25.074 17.1164C24.9653 16.9988 24.9565 16.9981 23.3779 16.9832L21.791 16.9682L21.8073 15.5826C21.8249 14.0927 21.8361 14.0228 22.0997 13.7525C22.3007 13.5463 22.417 13.5286 23.7595 13.4993L25.0717 13.4707L25.1875 13.3251L25.3033 13.1795V11.4163V9.65309L25.1855 9.52579L25.0677 9.39844L23.3974 9.4028C21.9741 9.40653 21.6632 9.42131 21.2951 9.50276Z" fill="#0E7F5C"></path></svg> 