<?xml version="1.0" encoding="UTF-8"?> <svg xmlns="http://www.w3.org/2000/svg" width="20" height="20" viewBox="0 0 20 20" fill="none"><path d="M2.09321 9.37535C7.01544 7.25869 10.2969 5.86312 11.9376 5.18891C16.6277 3.26365 17.6011 2.92928 18.2368 2.91808C18.3766 2.91574 18.6879 2.94985 18.891 3.11209C19.0598 3.24881 19.1073 3.4337 19.1311 3.56339C19.1522 3.69308 19.1812 3.98865 19.1575 4.21938C18.9042 6.85479 17.8042 13.2501 17.245 16.2019C17.0102 17.4509 16.5433 17.8697 16.0922 17.9105C15.111 17.9996 14.3671 17.271 13.4174 16.6566C11.9323 15.6949 11.0935 15.0964 9.65063 14.1582C7.98351 13.0738 9.065 12.4777 10.0146 11.5037C10.2626 11.2488 14.5834 7.36989 14.6651 7.01807C14.6757 6.97406 14.6863 6.80999 14.586 6.72354C14.4884 6.63682 14.3433 6.66651 14.2378 6.68994C14.0874 6.72328 11.716 8.27223 7.11556 11.3365C6.44291 11.7933 5.83358 12.016 5.28491 12.0043C4.68348 11.9915 3.5229 11.6678 2.66032 11.3912C1.60518 11.0519 0.763665 10.8725 0.837525 10.2962C0.874455 9.99618 1.29394 9.68915 2.09321 9.37535Z" fill="#0E7F5C"></path></svg> 