<?xml version="1.0" encoding="UTF-8"?> <svg xmlns="http://www.w3.org/2000/svg" width="320" height="55" viewBox="0 0 320 55" fill="none"><path d="M72.7788 3.996C72.8161 5.788 72.8628 8.476 72.9188 12.06C72.9935 15.6253 73.0495 18.304 73.0868 20.096C73.0868 20.3947 73.0028 20.6467 72.8348 20.852C72.6855 21.0387 72.4708 21.0853 72.1908 20.992C71.9855 20.936 71.8081 20.824 71.6588 20.656C71.5095 20.4693 71.3881 20.2733 71.2948 20.068C71.2201 19.844 71.1828 19.6293 71.1828 19.424C71.1828 19.256 71.1081 15.0187 70.9588 6.712C70.2868 7.608 69.3068 9.04533 68.0188 11.024C67.0108 12.5547 66.0961 13.992 65.2748 15.336C65.1441 15.5413 64.9761 15.6627 64.7708 15.7C64.5841 15.7187 64.4068 15.672 64.2388 15.56C64.0708 15.4293 63.9215 15.2707 63.7908 15.084C63.1375 14.0947 62.1388 12.6107 60.7948 10.632C59.4508 8.65333 58.4428 7.16933 57.7708 6.18L59.7308 19.564C59.8428 20.404 59.6375 20.824 59.1148 20.824C58.8348 20.8427 58.5735 20.712 58.3308 20.432C58.0881 20.1333 57.9481 19.8347 57.9108 19.536C57.6308 17.5387 57.1921 14.5427 56.5948 10.548C56.0161 6.55333 55.5868 3.55733 55.3068 1.56C55.1761 0.719999 55.3815 0.290666 55.9228 0.271999C56.2028 0.271999 56.4548 0.411999 56.6788 0.691999C56.9215 0.971999 57.0708 1.26133 57.1268 1.56C57.1268 1.63467 57.1361 1.756 57.1548 1.924C57.1921 2.07333 57.2108 2.18533 57.2108 2.26C57.3228 2.35333 57.4161 2.456 57.4908 2.568C61.4481 8.448 63.6881 11.7707 64.2108 12.536C65.1255 11.08 65.8628 9.92267 66.4228 9.064C66.4975 8.91467 66.6468 8.672 66.8708 8.336C67.1135 7.98133 67.2815 7.72 67.3748 7.552C67.4868 7.384 67.6455 7.14133 67.8508 6.824C68.0748 6.50667 68.2521 6.25467 68.3828 6.068C68.5135 5.88133 68.6815 5.648 68.8868 5.368C69.0921 5.06933 69.2695 4.81733 69.4188 4.612C69.5868 4.40667 69.7641 4.18267 69.9508 3.94C70.1561 3.67867 70.3521 3.436 70.5388 3.212C70.7255 2.988 70.9215 2.764 71.1268 2.54C71.4628 2.18533 71.8175 2.24133 72.1908 2.708C72.5828 3.17467 72.7788 3.604 72.7788 3.996ZM88.1035 9.12C88.4395 8.616 88.8502 8.59733 89.3355 9.064C89.7835 9.49333 89.9889 9.97867 89.9515 10.52C89.9329 10.6693 89.8862 10.8 89.8115 10.912L79.0315 27.992C78.7142 28.496 78.3129 28.5147 77.8275 28.048C77.3609 27.6187 77.1555 27.1333 77.2115 26.592L77.3235 26.2C77.7902 25.472 78.4809 24.38 79.3955 22.924C80.3102 21.4867 80.9915 20.404 81.4395 19.676C79.9089 18.22 77.6035 16.0173 74.5235 13.068C74.2995 12.8627 74.1409 12.5827 74.0475 12.228C73.9542 11.8733 73.9729 11.5467 74.1035 11.248C74.2715 10.9867 74.4675 10.8747 74.6915 10.912C74.9342 10.9307 75.1582 11.0427 75.3635 11.248L82.4755 18.052L88.1035 9.12ZM103.14 16.232C103.345 16.12 103.55 16.12 103.756 16.232C103.961 16.344 104.129 16.512 104.26 16.736C104.409 16.96 104.512 17.2027 104.568 17.464C104.642 17.7253 104.642 17.9773 104.568 18.22C104.512 18.444 104.381 18.6027 104.176 18.696C101.432 20.0027 98.5758 20.628 95.6078 20.572C94.0771 20.5533 92.9104 20.3013 92.1078 19.816C91.5851 19.4987 91.1558 19.0507 90.8198 18.472C90.4838 17.8933 90.2598 17.2773 90.1478 16.624C90.0544 15.896 90.0824 15.168 90.2318 14.44C90.3811 13.6933 90.6331 13.0027 90.9878 12.368C91.3611 11.7333 91.8278 11.1733 92.3878 10.688C92.9104 10.2213 93.4891 9.83867 94.1238 9.54C94.7771 9.24133 95.4678 9.064 96.1958 9.008C96.9238 8.93333 97.5958 9.05467 98.2118 9.372C98.7344 9.63333 99.1638 10.0533 99.4998 10.632C99.8544 11.192 100.06 11.78 100.116 12.396C100.19 13.012 100.069 13.5907 99.7518 14.132C99.4531 14.6547 98.9678 15 98.2958 15.168C98.0158 15.2427 97.7544 15.1867 97.5118 15C97.2878 14.8133 97.1104 14.5707 96.9798 14.272C96.8678 14.0853 96.8211 13.796 96.8398 13.404C96.8584 12.9933 96.9984 12.7507 97.2598 12.676C97.4651 12.6387 97.6984 12.5267 97.9598 12.34C98.2398 12.1347 98.3331 11.9667 98.2398 11.836C98.1651 11.6867 97.8384 11.6027 97.2598 11.584C96.8118 11.5653 96.3918 11.612 95.9998 11.724C95.3091 11.9107 94.6651 12.228 94.0678 12.676C93.4891 13.1053 93.0224 13.628 92.6678 14.244C92.4624 14.58 92.2851 14.944 92.1358 15.336C92.0051 15.728 91.9398 16.1573 91.9398 16.624C91.9584 17.072 92.1358 17.3893 92.4718 17.576C92.9011 17.8373 93.6758 17.9867 94.7958 18.024C95.7291 18.0427 96.6718 17.996 97.6238 17.884C99.4718 17.6413 101.31 17.0907 103.14 16.232ZM117.192 13.656C117.622 14.8693 117.594 16.0547 117.108 17.212C116.642 18.3693 115.83 19.2467 114.672 19.844C113.608 20.4227 112.414 20.684 111.088 20.628C109.782 20.5533 108.634 20.1613 107.644 19.452C106.58 18.724 105.796 17.744 105.292 16.512C104.788 15.28 104.695 14.048 105.012 12.816C105.33 11.64 105.964 10.6973 106.916 9.988C107.887 9.26 108.979 8.924 110.192 8.98C110.622 9.01733 110.967 9.344 111.228 9.96C112.498 10.016 113.524 10.2213 114.308 10.576C115.764 11.248 116.726 12.2747 117.192 13.656ZM115.4 15.504C115.568 15.112 115.634 14.748 115.596 14.412C115.596 14.3187 115.587 14.2347 115.568 14.16C115.55 14.0667 115.484 13.9453 115.372 13.796C115.148 13.4973 114.85 13.2547 114.476 13.068C114.122 12.8627 113.664 12.732 113.104 12.676C112.563 12.6013 112.152 12.5547 111.872 12.536C111.611 12.5173 111.172 12.508 110.556 12.508C110.164 12.508 109.828 12.228 109.548 11.668C108.858 11.8547 108.26 12.2 107.756 12.704C107.252 13.1893 106.935 13.7773 106.804 14.468C106.73 14.8413 106.72 15.1867 106.776 15.504C106.832 15.8027 106.935 16.0547 107.084 16.26C107.476 16.876 107.999 17.324 108.652 17.604C109.492 17.9587 110.379 18.108 111.312 18.052C112.264 17.9773 113.132 17.6973 113.916 17.212C114.626 16.7827 115.12 16.2133 115.4 15.504ZM131.423 10.268C132.282 10.94 132.777 11.8173 132.907 12.9C133.057 13.964 132.805 14.9253 132.151 15.784C131.909 16.1013 131.601 16.3907 131.227 16.652C130.873 16.8947 130.527 17.1 130.191 17.268C129.855 17.4173 129.435 17.5667 128.931 17.716C128.427 17.8653 128.026 17.9773 127.727 18.052C127.429 18.108 127.027 18.1827 126.523 18.276C124.657 18.6307 122.725 18.752 120.727 18.64C120.933 22.0187 121.353 25.3133 121.987 28.524C122.006 28.692 122.006 28.8693 121.987 29.056C121.987 29.2427 121.931 29.4107 121.819 29.56C121.707 29.7093 121.558 29.784 121.371 29.784C121.073 29.8027 120.811 29.672 120.587 29.392C120.363 29.112 120.223 28.8133 120.167 28.496C119.495 25.0613 119.057 21.58 118.851 18.052C118.665 17.8093 118.543 17.548 118.487 17.268C118.431 17.1187 118.422 16.9133 118.459 16.652C118.515 16.372 118.609 16.176 118.739 16.064C118.702 14.9627 118.683 13.8987 118.683 12.872C118.366 12.5547 118.179 12.1533 118.123 11.668C118.086 11.1827 118.235 10.856 118.571 10.688C118.59 10.688 118.618 10.688 118.655 10.688C118.693 10.6693 118.721 10.6507 118.739 10.632C118.739 10.576 118.739 10.4827 118.739 10.352C118.739 10.2027 118.739 10.0907 118.739 10.016C118.758 9.58667 118.879 9.316 119.103 9.204C119.346 9.092 119.598 9.12933 119.859 9.316C120.121 9.484 120.326 9.71733 120.475 10.016C122.323 9.47467 124.181 9.176 126.047 9.12C127.223 9.08267 128.25 9.13867 129.127 9.288C130.005 9.41867 130.77 9.74533 131.423 10.268ZM129.575 14.524C129.967 14.3187 130.341 14.0293 130.695 13.656C131.05 13.264 131.181 12.9 131.087 12.564C131.013 12.3027 130.546 12.0693 129.687 11.864C128.997 11.696 127.979 11.6307 126.635 11.668C124.619 11.7427 122.603 12.1253 120.587 12.816C120.569 13.824 120.578 14.916 120.615 16.092C122.65 16.1853 124.582 16.0173 126.411 15.588C127.793 15.2707 128.847 14.916 129.575 14.524ZM167.326 12.34C167.793 12.3213 168.157 12.6387 168.418 13.292C168.698 13.964 168.67 14.4493 168.334 14.748C168.222 14.8413 168.082 14.888 167.914 14.888C165.376 14.9813 161.558 15.112 156.462 15.28C151.385 15.448 147.577 15.5693 145.038 15.644C144.572 15.6627 144.208 15.3453 143.946 14.692C143.666 14.02 143.694 13.5347 144.03 13.236C144.142 13.1427 144.282 13.0867 144.45 13.068C146.56 13.012 148.996 12.9373 151.758 12.844C154.521 12.7507 157.274 12.6573 160.018 12.564C162.781 12.4707 165.217 12.396 167.326 12.34ZM192.416 9.484C192.64 9.67067 192.818 9.932 192.948 10.268C193.079 10.5853 193.107 10.8747 193.032 11.136C193.032 11.1733 193.023 11.22 193.004 11.276C192.986 11.332 192.967 11.3693 192.948 11.388V11.416C192.071 13.9733 191.978 16.5867 192.668 19.256C192.743 19.536 192.734 19.8253 192.64 20.124C192.547 20.404 192.36 20.544 192.08 20.544C191.782 20.544 191.53 20.4133 191.324 20.152C191.119 19.872 190.97 19.5733 190.876 19.256C190.559 18.0613 190.382 16.8387 190.344 15.588C189.728 16.1293 189.075 16.568 188.384 16.904C186.424 17.8187 184.343 17.9027 182.14 17.156C182.159 17.38 182.168 17.7067 182.168 18.136C182.262 18.8453 182.28 19.564 182.224 20.292C182.224 20.3107 182.224 20.3573 182.224 20.432V20.404C182.224 20.4413 182.224 20.4973 182.224 20.572C182.224 20.628 182.224 20.6747 182.224 20.712C182.187 20.992 182.066 21.188 181.86 21.3C181.655 21.3933 181.44 21.384 181.216 21.272C180.955 21.1413 180.74 20.9267 180.572 20.628C180.423 20.3293 180.348 20.0307 180.348 19.732C180.33 19.4707 180.311 19.0787 180.292 18.556C180.292 18.0147 180.283 17.6133 180.264 17.352C180.171 16.736 180.012 16.148 179.788 15.588C179.658 15.308 179.63 14.9907 179.704 14.636C179.779 14.2813 179.938 14.076 180.18 14.02C180.18 13.5907 180.171 12.956 180.152 12.116C180.134 11.2573 180.115 10.6227 180.096 10.212C180.096 9.91333 180.171 9.66133 180.32 9.456C180.488 9.25067 180.712 9.204 180.992 9.316C181.272 9.40933 181.506 9.61467 181.692 9.932C181.879 10.2493 181.982 10.5667 182 10.884C182.038 12.6013 182.066 13.88 182.084 14.72C182.999 15.056 183.942 15.1587 184.912 15.028C185.883 14.8973 186.779 14.636 187.6 14.244C188.44 13.8333 189.178 13.2453 189.812 12.48C190.447 11.7147 190.895 10.8653 191.156 9.932C191.175 9.89467 191.184 9.85733 191.184 9.82C191.203 9.78267 191.212 9.74533 191.212 9.708C191.231 9.67067 191.25 9.63333 191.268 9.596C191.324 9.428 191.427 9.32533 191.576 9.288C191.726 9.232 191.875 9.232 192.024 9.288C192.174 9.32533 192.304 9.39067 192.416 9.484ZM207.071 17.38C207.295 17.3053 207.509 17.324 207.715 17.436C207.939 17.548 208.116 17.7253 208.247 17.968C208.377 18.192 208.471 18.4347 208.527 18.696C208.601 18.9573 208.601 19.2 208.527 19.424C208.471 19.6293 208.34 19.7693 208.135 19.844C206.175 20.5347 204.196 20.9453 202.199 21.076C199.697 21.2253 197.84 20.964 196.627 20.292C195.376 19.6013 194.592 18.4907 194.275 16.96C194.013 16.736 193.817 16.4373 193.687 16.064C193.556 15.672 193.528 15.336 193.603 15.056C193.696 14.7573 193.901 14.6173 194.219 14.636C194.349 13.7773 194.639 13.0213 195.087 12.368C195.852 11.2293 197.009 10.2493 198.559 9.428C200.295 8.49467 201.881 8.21467 203.319 8.588C204.084 8.79333 204.747 9.204 205.307 9.82C205.867 10.4173 206.249 11.08 206.455 11.808C206.66 12.536 206.632 13.2827 206.371 14.048C206.128 14.7947 205.643 15.392 204.915 15.84C204.504 16.0827 204 16.2973 203.403 16.484C202.805 16.652 202.32 16.764 201.947 16.82C201.592 16.876 201.051 16.96 200.323 17.072C198.979 17.2587 197.597 17.324 196.179 17.268C196.197 17.2867 196.207 17.3147 196.207 17.352C196.225 17.3707 196.235 17.3893 196.235 17.408C196.589 18.0053 197.467 18.36 198.867 18.472C201.611 18.7147 204.345 18.3507 207.071 17.38ZM198.531 12.536C197.597 13.1707 196.907 13.8987 196.459 14.72C197.448 14.72 198.381 14.664 199.259 14.552C201.088 14.3467 202.46 14.0293 203.375 13.6C203.785 13.4133 204.14 13.1613 204.439 12.844C204.756 12.508 204.831 12.1627 204.663 11.808C204.457 11.4347 204.084 11.192 203.543 11.08C203.02 10.968 202.507 10.9493 202.003 11.024C200.939 11.1733 199.781 11.6773 198.531 12.536ZM235.446 17.968C235.745 19.2747 235.549 20.3013 234.858 21.048C234.354 21.5707 233.523 21.9347 232.366 22.14C231.806 22.2333 231.218 22.2893 230.602 22.308C230.005 22.3267 229.37 22.2987 228.698 22.224C228.045 22.1493 227.466 22.0747 226.962 22C226.477 21.9067 225.879 21.7947 225.17 21.664C224.405 21.5147 223.779 21.3933 223.294 21.3C222.827 21.188 222.258 21.0387 221.586 20.852C220.933 20.6653 220.345 20.46 219.822 20.236C219.523 20.1053 219.281 19.8907 219.094 19.592C218.926 19.2933 218.833 18.9853 218.814 18.668C218.814 18.3693 218.898 18.1173 219.066 17.912C219.234 17.688 219.449 17.632 219.71 17.744C220.345 18.024 221.119 18.2853 222.034 18.528C221.997 18.36 221.978 18.248 221.978 18.192L221.754 16.26C221.53 16.26 221.306 16.148 221.082 15.924C220.877 15.6813 220.718 15.42 220.606 15.14C220.494 14.8413 220.457 14.5613 220.494 14.3C220.55 14.02 220.709 13.8427 220.97 13.768C221.007 13.7493 221.054 13.7307 221.11 13.712C221.166 13.6933 221.222 13.6747 221.278 13.656C221.353 13.6373 221.409 13.628 221.446 13.628C221.409 13.3667 221.362 12.9747 221.306 12.452C221.25 11.9293 221.203 11.5373 221.166 11.276C220.923 10.9773 220.774 10.632 220.718 10.24C220.662 9.848 220.737 9.53067 220.942 9.288C220.942 9.232 220.933 9.15733 220.914 9.064C220.895 8.97067 220.886 8.896 220.886 8.84C220.849 8.56 220.923 8.31733 221.11 8.112C221.297 7.90667 221.521 7.85067 221.782 7.944C222.062 8.03733 222.295 8.23333 222.482 8.532C223.901 7.99067 225.319 7.67333 226.738 7.58C228.885 7.44933 230.303 8.336 230.994 10.24C231.461 11.5467 231.339 12.6853 230.63 13.656C231.843 13.992 232.889 14.524 233.766 15.252C234.643 15.9613 235.203 16.8667 235.446 17.968ZM222.986 11.248C223.023 11.64 223.098 12.2933 223.21 13.208C224.237 13.0587 225.31 13.0027 226.43 13.04C227.177 12.816 227.821 12.5453 228.362 12.228C228.773 11.9667 229.071 11.6773 229.258 11.36C229.295 11.304 229.333 11.2293 229.37 11.136C229.37 11.1173 229.37 11.0707 229.37 10.996C229.389 10.8653 229.361 10.7347 229.286 10.604C229.249 10.5293 229.221 10.4733 229.202 10.436C229.127 10.38 229.081 10.352 229.062 10.352C228.894 10.2587 228.679 10.1933 228.418 10.156C227.783 10.0813 226.99 10.1373 226.038 10.324C224.955 10.5293 223.938 10.8373 222.986 11.248ZM233.626 18.528C233.645 18.4533 233.654 18.4067 233.654 18.388C233.654 18.388 233.663 18.3507 233.682 18.276C233.682 18.2013 233.682 18.136 233.682 18.08C233.663 18.0613 233.635 17.9773 233.598 17.828C233.542 17.6413 233.393 17.4547 233.15 17.268C232.833 16.988 232.45 16.7547 232.002 16.568C231.069 16.1573 229.986 15.8773 228.754 15.728C228.194 15.672 227.634 15.6347 227.074 15.616C226.626 15.728 226.103 15.84 225.506 15.952C224.871 16.064 224.218 16.148 223.546 16.204C223.621 16.8013 223.723 17.6973 223.854 18.892C223.854 18.892 223.854 18.9013 223.854 18.92C223.854 18.9387 223.854 18.948 223.854 18.948C224.246 19.0227 224.647 19.1067 225.058 19.2C227.69 19.6853 229.818 19.8253 231.442 19.62C232.338 19.508 232.963 19.284 233.318 18.948C233.411 18.8547 233.495 18.752 233.57 18.64C233.57 18.64 233.589 18.6027 233.626 18.528ZM248.803 13.628C249.045 15.0653 249.12 17.0533 249.027 19.592C249.008 20.1333 248.831 20.4413 248.495 20.516C248.177 20.5907 247.841 20.3947 247.487 19.928C245.657 21.16 243.688 21.888 241.579 22.112C238.984 22.392 237.22 21.804 236.287 20.348C235.988 19.8813 235.811 19.368 235.755 18.808C235.699 18.248 235.773 17.7067 235.979 17.184C236.333 16.3813 237.033 15.7653 238.079 15.336C239.721 14.72 241.327 14.5707 242.895 14.888C244.463 15.2053 245.891 15.9147 247.179 17.016C247.197 15.896 247.16 14.9347 247.067 14.132C247.029 13.7587 246.992 13.46 246.955 13.236C246.936 13.012 246.88 12.732 246.787 12.396C246.712 12.0413 246.591 11.7333 246.423 11.472C246.273 11.2107 246.096 10.996 245.891 10.828C245.443 10.5107 244.892 10.352 244.239 10.352C243.604 10.3333 243.044 10.436 242.559 10.66C241.476 11.1267 240.533 11.9947 239.731 13.264C239.413 13.768 239.012 13.7867 238.527 13.32C238.06 12.872 237.855 12.3773 237.911 11.836L238.023 11.444C239.124 9.74533 240.347 8.63467 241.691 8.112C242.419 7.832 243.203 7.72933 244.043 7.804C244.883 7.87867 245.62 8.14933 246.255 8.616C247.58 9.54933 248.429 11.22 248.803 13.628ZM241.187 19.508C242.624 19.34 244.005 18.8827 245.331 18.136C244.621 17.7627 243.884 17.5107 243.119 17.38C242.092 17.212 241.112 17.2493 240.179 17.492C238.984 17.772 238.2 18.1827 237.827 18.724C237.789 18.78 237.724 18.9107 237.631 19.116C237.631 19.116 237.631 19.1253 237.631 19.144C237.817 19.2933 238.06 19.4053 238.359 19.48C239.012 19.6667 239.955 19.676 241.187 19.508ZM264.302 16.512C264.732 16.792 264.974 17.2493 265.03 17.884C265.105 18.5187 264.89 18.8733 264.386 18.948C264.349 18.948 264.302 18.948 264.246 18.948C264.246 18.9667 264.246 18.9947 264.246 19.032C264.246 19.0507 264.246 19.0693 264.246 19.088C264.228 19.3867 264.144 19.6387 263.994 19.844C263.845 20.0307 263.63 20.0773 263.35 19.984C262.977 19.8533 262.688 19.5547 262.482 19.088C261.922 19.144 261.082 19.2187 259.962 19.312C258.842 19.3867 258.002 19.452 257.442 19.508C257.274 19.7133 257.05 19.7693 256.77 19.676C256.696 19.6573 256.621 19.62 256.546 19.564C256.042 19.62 255.277 19.6947 254.25 19.788C253.224 19.8627 252.449 19.9187 251.926 19.956C251.777 20.3853 251.506 20.5347 251.114 20.404C250.816 20.3107 250.573 20.1053 250.386 19.788C250.2 19.4707 250.106 19.1533 250.106 18.836V11.304C250.106 11.0053 250.181 10.7627 250.33 10.576C250.498 10.3707 250.722 10.3147 251.002 10.408C251.282 10.5013 251.516 10.7067 251.702 11.024C251.908 11.3413 252.01 11.6587 252.01 11.976V17.324L255.734 17.016C255.716 15.8213 255.669 14.02 255.594 11.612C255.594 11.332 255.669 11.0893 255.818 10.884C255.986 10.6787 256.21 10.6227 256.49 10.716C256.64 10.772 256.78 10.856 256.91 10.968C257.041 11.08 257.144 11.2107 257.218 11.36C257.312 11.5093 257.377 11.668 257.414 11.836C257.47 11.9853 257.498 12.144 257.498 12.312C257.517 13.3013 257.554 14.8227 257.61 16.876L262.398 16.484C262.417 15.8867 262.436 15.2053 262.454 14.44C262.473 13.656 262.492 12.8813 262.51 12.116C262.529 11.332 262.548 10.6413 262.566 10.044C262.566 9.74533 262.641 9.50267 262.79 9.316C262.958 9.11067 263.182 9.05467 263.462 9.148C263.742 9.24133 263.976 9.456 264.162 9.792C264.368 10.1093 264.47 10.4267 264.47 10.744C264.452 11.3787 264.424 12.34 264.386 13.628C264.349 14.916 264.321 15.8773 264.302 16.512ZM80.3516 34.12C80.6876 33.616 81.0983 33.5973 81.5836 34.064C82.0316 34.4933 82.2369 34.9787 82.1996 35.52C82.1809 35.6693 82.1343 35.8 82.0596 35.912L71.2796 52.992C70.9623 53.496 70.5609 53.5147 70.0756 53.048C69.6089 52.6187 69.4036 52.1333 69.4596 51.592L69.5716 51.2C70.0383 50.472 70.7289 49.38 71.6436 47.924C72.5583 46.4867 73.2396 45.404 73.6876 44.676C72.1569 43.22 69.8516 41.0173 66.7716 38.068C66.5476 37.8627 66.3889 37.5827 66.2956 37.228C66.2023 36.8733 66.2209 36.5467 66.3516 36.248C66.5196 35.9867 66.7156 35.8747 66.9396 35.912C67.1823 35.9307 67.4063 36.0427 67.6116 36.248L74.7236 43.052L80.3516 34.12ZM95.7798 35.268C96.6385 35.94 97.1331 36.8173 97.2638 37.9C97.4131 38.964 97.1611 39.9253 96.5078 40.784C96.2651 41.1013 95.9571 41.3907 95.5838 41.652C95.2291 41.8947 94.8838 42.1 94.5478 42.268C94.2118 42.4173 93.7918 42.5667 93.2878 42.716C92.7838 42.8653 92.3825 42.9773 92.0838 43.052C91.7851 43.108 91.3838 43.1827 90.8798 43.276C89.0131 43.6307 87.0811 43.752 85.0838 43.64C85.2891 47.0187 85.7091 50.3133 86.3438 53.524C86.3625 53.692 86.3625 53.8693 86.3438 54.056C86.3438 54.2427 86.2878 54.4107 86.1758 54.56C86.0638 54.7093 85.9145 54.784 85.7278 54.784C85.4291 54.8027 85.1678 54.672 84.9438 54.392C84.7198 54.112 84.5798 53.8133 84.5238 53.496C83.8518 50.0613 83.4131 46.58 83.2078 43.052C83.0211 42.8093 82.8998 42.548 82.8438 42.268C82.7878 42.1187 82.7785 41.9133 82.8158 41.652C82.8718 41.372 82.9651 41.176 83.0958 41.064C83.0585 39.9627 83.0398 38.8987 83.0398 37.872C82.7225 37.5547 82.5358 37.1533 82.4798 36.668C82.4425 36.1827 82.5918 35.856 82.9278 35.688C82.9465 35.688 82.9745 35.688 83.0118 35.688C83.0491 35.6693 83.0771 35.6507 83.0958 35.632C83.0958 35.576 83.0958 35.4827 83.0958 35.352C83.0958 35.2027 83.0958 35.0907 83.0958 35.016C83.1145 34.5867 83.2358 34.316 83.4598 34.204C83.7025 34.092 83.9545 34.1293 84.2158 34.316C84.4771 34.484 84.6825 34.7173 84.8318 35.016C86.6798 34.4747 88.5371 34.176 90.4038 34.12C91.5798 34.0827 92.6065 34.1387 93.4838 34.288C94.3611 34.4187 95.1265 34.7453 95.7798 35.268ZM93.9318 39.524C94.3238 39.3187 94.6971 39.0293 95.0518 38.656C95.4065 38.264 95.5371 37.9 95.4438 37.564C95.3691 37.3027 94.9025 37.0693 94.0438 36.864C93.3531 36.696 92.3358 36.6307 90.9918 36.668C88.9758 36.7427 86.9598 37.1253 84.9438 37.816C84.9251 38.824 84.9345 39.916 84.9718 41.092C87.0065 41.1853 88.9385 41.0173 90.7678 40.588C92.1491 40.2707 93.2038 39.916 93.9318 39.524ZM110.042 38.656C110.471 39.8693 110.443 41.0547 109.958 42.212C109.491 43.3693 108.679 44.2467 107.522 44.844C106.458 45.4227 105.263 45.684 103.938 45.628C102.631 45.5533 101.483 45.1613 100.494 44.452C99.4299 43.724 98.6459 42.744 98.1419 41.512C97.6379 40.28 97.5445 39.048 97.8619 37.816C98.1792 36.64 98.8139 35.6973 99.7659 34.988C100.737 34.26 101.829 33.924 103.042 33.98C103.471 34.0173 103.817 34.344 104.078 34.96C105.347 35.016 106.374 35.2213 107.158 35.576C108.614 36.248 109.575 37.2747 110.042 38.656ZM108.25 40.504C108.418 40.112 108.483 39.748 108.446 39.412C108.446 39.3187 108.437 39.2347 108.418 39.16C108.399 39.0667 108.334 38.9453 108.222 38.796C107.998 38.4973 107.699 38.2547 107.326 38.068C106.971 37.8627 106.514 37.732 105.954 37.676C105.413 37.6013 105.002 37.5547 104.722 37.536C104.461 37.5173 104.022 37.508 103.406 37.508C103.014 37.508 102.678 37.228 102.398 36.668C101.707 36.8547 101.11 37.2 100.606 37.704C100.102 38.1893 99.7845 38.7773 99.6539 39.468C99.5792 39.8413 99.5699 40.1867 99.6259 40.504C99.6819 40.8027 99.7845 41.0547 99.9339 41.26C100.326 41.876 100.849 42.324 101.502 42.604C102.342 42.9587 103.229 43.108 104.162 43.052C105.114 42.9773 105.982 42.6973 106.766 42.212C107.475 41.7827 107.97 41.2133 108.25 40.504ZM127.325 42.968C127.624 44.2747 127.428 45.3013 126.737 46.048C126.233 46.5707 125.402 46.9347 124.245 47.14C123.685 47.2333 123.097 47.2893 122.481 47.308C121.884 47.3267 121.249 47.2987 120.577 47.224C119.924 47.1493 119.345 47.0747 118.841 47C118.356 46.9067 117.758 46.7947 117.049 46.664C116.284 46.5147 115.658 46.3933 115.173 46.3C114.706 46.188 114.137 46.0387 113.465 45.852C112.812 45.6653 112.224 45.46 111.701 45.236C111.402 45.1053 111.16 44.8907 110.973 44.592C110.805 44.2933 110.712 43.9853 110.693 43.668C110.693 43.3693 110.777 43.1173 110.945 42.912C111.113 42.688 111.328 42.632 111.589 42.744C112.224 43.024 112.998 43.2853 113.913 43.528C113.876 43.36 113.857 43.248 113.857 43.192L113.633 41.26C113.409 41.26 113.185 41.148 112.961 40.924C112.756 40.6813 112.597 40.42 112.485 40.14C112.373 39.8413 112.336 39.5613 112.373 39.3C112.429 39.02 112.588 38.8427 112.849 38.768C112.886 38.7493 112.933 38.7307 112.989 38.712C113.045 38.6933 113.101 38.6747 113.157 38.656C113.232 38.6373 113.288 38.628 113.325 38.628C113.288 38.3667 113.241 37.9747 113.185 37.452C113.129 36.9293 113.082 36.5373 113.045 36.276C112.802 35.9773 112.653 35.632 112.597 35.24C112.541 34.848 112.616 34.5307 112.821 34.288C112.821 34.232 112.812 34.1573 112.793 34.064C112.774 33.9707 112.765 33.896 112.765 33.84C112.728 33.56 112.802 33.3173 112.989 33.112C113.176 32.9067 113.4 32.8507 113.661 32.944C113.941 33.0373 114.174 33.2333 114.361 33.532C115.78 32.9907 117.198 32.6733 118.617 32.58C120.764 32.4493 122.182 33.336 122.873 35.24C123.34 36.5467 123.218 37.6853 122.509 38.656C123.722 38.992 124.768 39.524 125.645 40.252C126.522 40.9613 127.082 41.8667 127.325 42.968ZM114.865 36.248C114.902 36.64 114.977 37.2933 115.089 38.208C116.116 38.0587 117.189 38.0027 118.309 38.04C119.056 37.816 119.7 37.5453 120.241 37.228C120.652 36.9667 120.95 36.6773 121.137 36.36C121.174 36.304 121.212 36.2293 121.249 36.136C121.249 36.1173 121.249 36.0707 121.249 35.996C121.268 35.8653 121.24 35.7347 121.165 35.604C121.128 35.5293 121.1 35.4733 121.081 35.436C121.006 35.38 120.96 35.352 120.941 35.352C120.773 35.2587 120.558 35.1933 120.297 35.156C119.662 35.0813 118.869 35.1373 117.917 35.324C116.834 35.5293 115.817 35.8373 114.865 36.248ZM125.505 43.528C125.524 43.4533 125.533 43.4067 125.533 43.388C125.533 43.388 125.542 43.3507 125.561 43.276C125.561 43.2013 125.561 43.136 125.561 43.08C125.542 43.0613 125.514 42.9773 125.477 42.828C125.421 42.6413 125.272 42.4547 125.029 42.268C124.712 41.988 124.329 41.7547 123.881 41.568C122.948 41.1573 121.865 40.8773 120.633 40.728C120.073 40.672 119.513 40.6347 118.953 40.616C118.505 40.728 117.982 40.84 117.385 40.952C116.75 41.064 116.097 41.148 115.425 41.204C115.5 41.8013 115.602 42.6973 115.733 43.892C115.733 43.892 115.733 43.9013 115.733 43.92C115.733 43.9387 115.733 43.948 115.733 43.948C116.125 44.0227 116.526 44.1067 116.937 44.2C119.569 44.6853 121.697 44.8253 123.321 44.62C124.217 44.508 124.842 44.284 125.197 43.948C125.29 43.8547 125.374 43.752 125.449 43.64C125.449 43.64 125.468 43.6027 125.505 43.528ZM141.102 42.38C141.326 42.3053 141.54 42.324 141.746 42.436C141.97 42.548 142.147 42.7253 142.278 42.968C142.408 43.192 142.502 43.4347 142.558 43.696C142.632 43.9573 142.632 44.2 142.558 44.424C142.502 44.6293 142.371 44.7693 142.166 44.844C140.206 45.5347 138.227 45.9453 136.23 46.076C133.728 46.2253 131.871 45.964 130.658 45.292C129.407 44.6013 128.623 43.4907 128.306 41.96C128.044 41.736 127.848 41.4373 127.718 41.064C127.587 40.672 127.559 40.336 127.634 40.056C127.727 39.7573 127.932 39.6173 128.25 39.636C128.38 38.7773 128.67 38.0213 129.118 37.368C129.883 36.2293 131.04 35.2493 132.59 34.428C134.326 33.4947 135.912 33.2147 137.35 33.588C138.115 33.7933 138.778 34.204 139.338 34.82C139.898 35.4173 140.28 36.08 140.486 36.808C140.691 37.536 140.663 38.2827 140.402 39.048C140.159 39.7947 139.674 40.392 138.946 40.84C138.535 41.0827 138.031 41.2973 137.434 41.484C136.836 41.652 136.351 41.764 135.978 41.82C135.623 41.876 135.082 41.96 134.354 42.072C133.01 42.2587 131.628 42.324 130.21 42.268C130.228 42.2867 130.238 42.3147 130.238 42.352C130.256 42.3707 130.266 42.3893 130.266 42.408C130.62 43.0053 131.498 43.36 132.898 43.472C135.642 43.7147 138.376 43.3507 141.102 42.38ZM132.562 37.536C131.628 38.1707 130.938 38.8987 130.49 39.72C131.479 39.72 132.412 39.664 133.29 39.552C135.119 39.3467 136.491 39.0293 137.406 38.6C137.816 38.4133 138.171 38.1613 138.47 37.844C138.787 37.508 138.862 37.1627 138.694 36.808C138.488 36.4347 138.115 36.192 137.574 36.08C137.051 35.968 136.538 35.9493 136.034 36.024C134.97 36.1733 133.812 36.6773 132.562 37.536ZM155.788 34.484C156.012 34.6707 156.19 34.932 156.32 35.268C156.451 35.5853 156.479 35.8747 156.404 36.136C156.404 36.1733 156.395 36.22 156.376 36.276C156.358 36.332 156.339 36.3693 156.32 36.388V36.416C155.443 38.9733 155.35 41.5867 156.04 44.256C156.115 44.536 156.106 44.8253 156.012 45.124C155.919 45.404 155.732 45.544 155.452 45.544C155.154 45.544 154.902 45.4133 154.696 45.152C154.491 44.872 154.342 44.5733 154.248 44.256C153.931 43.0613 153.754 41.8387 153.716 40.588C153.1 41.1293 152.447 41.568 151.756 41.904C149.796 42.8187 147.715 42.9027 145.512 42.156C145.531 42.38 145.54 42.7067 145.54 43.136C145.634 43.8453 145.652 44.564 145.596 45.292C145.596 45.3107 145.596 45.3573 145.596 45.432V45.404C145.596 45.4413 145.596 45.4973 145.596 45.572C145.596 45.628 145.596 45.6747 145.596 45.712C145.559 45.992 145.438 46.188 145.232 46.3C145.027 46.3933 144.812 46.384 144.588 46.272C144.327 46.1413 144.112 45.9267 143.944 45.628C143.795 45.3293 143.72 45.0307 143.72 44.732C143.702 44.4707 143.683 44.0787 143.664 43.556C143.664 43.0147 143.655 42.6133 143.636 42.352C143.543 41.736 143.384 41.148 143.16 40.588C143.03 40.308 143.002 39.9907 143.076 39.636C143.151 39.2813 143.31 39.076 143.552 39.02C143.552 38.5907 143.543 37.956 143.524 37.116C143.506 36.2573 143.487 35.6227 143.468 35.212C143.468 34.9133 143.543 34.6613 143.692 34.456C143.86 34.2507 144.084 34.204 144.364 34.316C144.644 34.4093 144.878 34.6147 145.064 34.932C145.251 35.2493 145.354 35.5667 145.372 35.884C145.41 37.6013 145.438 38.88 145.456 39.72C146.371 40.056 147.314 40.1587 148.284 40.028C149.255 39.8973 150.151 39.636 150.972 39.244C151.812 38.8333 152.55 38.2453 153.184 37.48C153.819 36.7147 154.267 35.8653 154.528 34.932C154.547 34.8947 154.556 34.8573 154.556 34.82C154.575 34.7827 154.584 34.7453 154.584 34.708C154.603 34.6707 154.622 34.6333 154.64 34.596C154.696 34.428 154.799 34.3253 154.948 34.288C155.098 34.232 155.247 34.232 155.396 34.288C155.546 34.3253 155.676 34.3907 155.788 34.484ZM168.035 38.124C168.595 38.4973 169.033 38.992 169.351 39.608C169.668 40.224 169.808 40.8587 169.771 41.512C169.715 42.072 169.519 42.5853 169.183 43.052C168.847 43.5 168.408 43.8733 167.867 44.172C167.344 44.4707 166.821 44.7133 166.299 44.9C165.776 45.068 165.235 45.1987 164.675 45.292C163.405 45.4973 162.229 45.32 161.147 44.76C160.064 44.1813 159.233 43.304 158.655 42.128C158.337 42.352 158.001 42.324 157.647 42.044C157.311 41.7453 157.105 41.3813 157.031 40.952C156.956 40.5227 157.031 40.168 157.255 39.888C157.441 39.7387 157.675 39.5613 157.955 39.356C157.861 38.1613 158.048 36.584 158.515 34.624C158.589 34.344 158.729 34.1573 158.935 34.064C159.159 33.952 159.392 33.98 159.635 34.148C159.896 34.3347 160.101 34.6053 160.251 34.96C160.419 35.296 160.465 35.6133 160.391 35.912C160.129 37.0133 159.961 37.7973 159.887 38.264C161.399 37.592 162.948 37.2747 164.535 37.312C166.047 37.3307 167.213 37.6013 168.035 38.124ZM167.867 40.532C167.867 40.532 167.876 40.5413 167.895 40.56C167.801 40.4293 167.605 40.308 167.307 40.196C166.971 40.0653 166.569 39.9813 166.103 39.944C165.207 39.832 164.292 39.8507 163.359 40C162.257 40.168 161.175 40.5507 160.111 41.148C160.185 41.316 160.232 41.4187 160.251 41.456C160.437 41.792 160.699 42.072 161.035 42.296C161.389 42.5013 161.763 42.6413 162.155 42.716C162.547 42.7907 162.939 42.8187 163.331 42.8C163.741 42.7813 164.143 42.7253 164.535 42.632C165.524 42.3707 166.327 42.0253 166.943 41.596C167.316 41.3533 167.587 41.092 167.755 40.812C167.773 40.7933 167.792 40.7467 167.811 40.672C167.848 40.5973 167.867 40.5507 167.867 40.532ZM167.923 40.56C167.997 40.5973 168.035 40.6067 168.035 40.588C168.053 40.5693 168.025 40.5227 167.951 40.448C167.932 40.4293 167.904 40.4107 167.867 40.392C167.867 40.392 167.885 40.448 167.923 40.56ZM195.593 40.168H195.621C196.013 41.008 196.097 41.848 195.873 42.688C195.649 43.5093 195.154 44.1813 194.389 44.704C193.903 45.0213 193.325 45.292 192.653 45.516C191.981 45.74 191.402 45.8987 190.917 45.992C190.431 46.0667 189.787 46.1507 188.985 46.244C186.801 46.524 184.561 46.5613 182.265 46.356C181.817 46.3 181.462 45.936 181.201 45.264C180.939 44.5733 180.967 44.1067 181.285 43.864C181.378 43.7893 181.509 43.7613 181.677 43.78C184.066 44.004 186.399 43.9573 188.677 43.64C189.293 43.5653 189.75 43.5 190.049 43.444C190.347 43.388 190.777 43.2947 191.337 43.164C191.897 43.0333 192.373 42.856 192.765 42.632C193.157 42.408 193.483 42.1373 193.745 41.82C193.969 41.5587 194.081 41.344 194.081 41.176C194.099 40.9893 193.987 40.784 193.745 40.56C193.166 40.0747 192.326 39.832 191.225 39.832C191.15 39.832 190.991 39.8413 190.749 39.86C189.311 40.9987 187.547 41.708 185.457 41.988C185.214 42.0253 184.99 41.9227 184.785 41.68C184.579 41.4187 184.43 41.148 184.337 40.868C184.113 40.2333 184.215 39.7667 184.645 39.468C186.493 38.236 188.182 37.5267 189.713 37.34C190.179 36.9293 190.515 36.5093 190.721 36.08C190.777 35.968 190.823 35.8373 190.861 35.688C190.879 35.688 190.889 35.632 190.889 35.52C190.87 35.5013 190.842 35.4827 190.805 35.464C190.767 35.4267 190.73 35.3987 190.693 35.38C190.655 35.3427 190.627 35.324 190.609 35.324C189.619 34.764 188.079 34.8573 185.989 35.604C184.402 36.164 183.021 36.9387 181.845 37.928C181.415 38.2827 180.986 38.1707 180.557 37.592C180.146 37.032 180.025 36.5093 180.193 36.024C180.249 35.8933 180.323 35.7907 180.417 35.716C182.097 34.316 183.982 33.336 186.073 32.776C188.779 32.048 190.739 32.44 191.953 33.952C192.811 35.016 192.998 36.22 192.513 37.564C193.987 38.012 195.014 38.88 195.593 40.168ZM209.276 38.628C209.519 40.0653 209.594 42.0533 209.5 44.592C209.482 45.1333 209.304 45.4413 208.968 45.516C208.651 45.5907 208.315 45.3947 207.96 44.928C206.131 46.16 204.162 46.888 202.052 47.112C199.458 47.392 197.694 46.804 196.76 45.348C196.462 44.8813 196.284 44.368 196.228 43.808C196.172 43.248 196.247 42.7067 196.452 42.184C196.807 41.3813 197.507 40.7653 198.552 40.336C200.195 39.72 201.8 39.5707 203.368 39.888C204.936 40.2053 206.364 40.9147 207.652 42.016C207.671 40.896 207.634 39.9347 207.54 39.132C207.503 38.7587 207.466 38.46 207.428 38.236C207.41 38.012 207.354 37.732 207.26 37.396C207.186 37.0413 207.064 36.7333 206.896 36.472C206.747 36.2107 206.57 35.996 206.364 35.828C205.916 35.5107 205.366 35.352 204.712 35.352C204.078 35.3333 203.518 35.436 203.032 35.66C201.95 36.1267 201.007 36.9947 200.204 38.264C199.887 38.768 199.486 38.7867 199 38.32C198.534 37.872 198.328 37.3773 198.384 36.836L198.496 36.444C199.598 34.7453 200.82 33.6347 202.164 33.112C202.892 32.832 203.676 32.7293 204.516 32.804C205.356 32.8787 206.094 33.1493 206.728 33.616C208.054 34.5493 208.903 36.22 209.276 38.628ZM201.66 44.508C203.098 44.34 204.479 43.8827 205.804 43.136C205.095 42.7627 204.358 42.5107 203.592 42.38C202.566 42.212 201.586 42.2493 200.652 42.492C199.458 42.772 198.674 43.1827 198.3 43.724C198.263 43.78 198.198 43.9107 198.104 44.116C198.104 44.116 198.104 44.1253 198.104 44.144C198.291 44.2933 198.534 44.4053 198.832 44.48C199.486 44.6667 200.428 44.676 201.66 44.508ZM221.976 37.9C223.021 38.2547 223.796 38.9733 224.3 40.056C224.822 41.1387 224.888 42.2027 224.496 43.248C224.309 43.7147 224.02 44.1253 223.628 44.48C223.236 44.8347 222.76 45.1053 222.2 45.292C221.658 45.46 221.145 45.5907 220.66 45.684C220.193 45.7773 219.68 45.8427 219.12 45.88C216.768 46.0853 214.714 45.8987 212.96 45.32C212.773 45.768 212.456 45.8893 212.008 45.684C211.765 45.5533 211.56 45.3387 211.392 45.04C211.224 44.7413 211.14 44.452 211.14 44.172C211.158 43.4813 211.168 42.7813 211.168 42.072C211.168 41.344 211.149 40.6627 211.112 40.028C211.074 39.3747 211 38.6933 210.888 37.984C210.776 37.2747 210.626 36.6027 210.44 35.968C210.365 35.8 210.356 35.5667 210.412 35.268C210.468 34.9507 210.598 34.7733 210.804 34.736C214.014 33.9707 217.206 33.728 220.38 34.008C220.828 34.064 221.182 34.4187 221.444 35.072C221.724 35.7627 221.696 36.2387 221.36 36.5C221.266 36.5747 221.136 36.6027 220.968 36.584C218.112 36.3227 215.293 36.4907 212.512 37.088C212.754 38.152 212.913 39.3467 212.988 40.672C213.809 39.8507 214.817 39.1693 216.012 38.628C218.308 37.564 220.296 37.3213 221.976 37.9ZM222.788 41.456C222.788 41.4373 222.788 41.4093 222.788 41.372L222.816 41.26C222.816 41.2413 222.816 41.2227 222.816 41.204C222.816 41.1853 222.816 41.148 222.816 41.092C222.816 41.036 222.816 40.9893 222.816 40.952C222.797 40.9333 222.788 40.9147 222.788 40.896V40.868C222.788 40.868 222.778 40.8587 222.76 40.84C222.76 40.8027 222.75 40.7653 222.732 40.728C222.713 40.6907 222.704 40.672 222.704 40.672C222.722 40.6907 222.732 40.728 222.732 40.784C222.732 40.7653 222.732 40.756 222.732 40.756C222.732 40.756 222.732 40.7467 222.732 40.728C222.732 40.7467 222.732 40.756 222.732 40.756C222.713 40.7373 222.704 40.728 222.704 40.728C222.704 40.7093 222.694 40.7 222.676 40.7C222.676 40.7 222.666 40.7 222.648 40.7C222.648 40.6813 222.638 40.672 222.62 40.672C222.62 40.6533 222.573 40.6067 222.48 40.532C222.461 40.532 222.414 40.5133 222.34 40.476C222.265 40.4387 222.209 40.4107 222.172 40.392C221.892 40.2987 221.593 40.2333 221.276 40.196C219.708 40.0653 218.028 40.504 216.236 41.512C215.433 41.9787 214.733 42.5293 214.136 43.164C215.517 43.4253 217.057 43.472 218.756 43.304C219.82 43.2107 220.716 43.0053 221.444 42.688C222.172 42.352 222.62 41.9413 222.788 41.456ZM222.788 40.868C222.788 40.9053 222.778 40.896 222.76 40.84C222.741 40.8027 222.732 40.7747 222.732 40.756C222.75 40.7933 222.76 40.812 222.76 40.812C222.76 40.812 222.75 40.7933 222.732 40.756C222.732 40.756 222.741 40.7653 222.76 40.784C222.741 40.784 222.732 40.784 222.732 40.784C222.75 40.8027 222.769 40.8213 222.788 40.84H222.76H222.788C222.788 40.84 222.788 40.8493 222.788 40.868ZM237.482 38.656C237.912 39.8693 237.884 41.0547 237.398 42.212C236.932 43.3693 236.12 44.2467 234.962 44.844C233.898 45.4227 232.704 45.684 231.378 45.628C230.072 45.5533 228.924 45.1613 227.934 44.452C226.87 43.724 226.086 42.744 225.582 41.512C225.078 40.28 224.985 39.048 225.302 37.816C225.62 36.64 226.254 35.6973 227.206 34.988C228.177 34.26 229.269 33.924 230.482 33.98C230.912 34.0173 231.257 34.344 231.518 34.96C232.788 35.016 233.814 35.2213 234.598 35.576C236.054 36.248 237.016 37.2747 237.482 38.656ZM235.69 40.504C235.858 40.112 235.924 39.748 235.886 39.412C235.886 39.3187 235.877 39.2347 235.858 39.16C235.84 39.0667 235.774 38.9453 235.662 38.796C235.438 38.4973 235.14 38.2547 234.766 38.068C234.412 37.8627 233.954 37.732 233.394 37.676C232.853 37.6013 232.442 37.5547 232.162 37.536C231.901 37.5173 231.462 37.508 230.846 37.508C230.454 37.508 230.118 37.228 229.838 36.668C229.148 36.8547 228.55 37.2 228.046 37.704C227.542 38.1893 227.225 38.7773 227.094 39.468C227.02 39.8413 227.01 40.1867 227.066 40.504C227.122 40.8027 227.225 41.0547 227.374 41.26C227.766 41.876 228.289 42.324 228.942 42.604C229.782 42.9587 230.669 43.108 231.602 43.052C232.554 42.9773 233.422 42.6973 234.206 42.212C234.916 41.7827 235.41 41.2133 235.69 40.504ZM252.61 33.616C252.964 33.5787 253.272 33.7653 253.534 34.176C253.795 34.5867 253.907 35.016 253.87 35.464C253.832 35.8933 253.608 36.136 253.198 36.192C251.611 36.3413 248.979 36.5933 245.302 36.948C245.339 37.844 245.376 39.1973 245.414 41.008C245.47 42.8 245.507 44.144 245.526 45.04C245.526 45.3387 245.442 45.5907 245.274 45.796C245.124 45.9827 244.91 46.0293 244.63 45.936C244.331 45.8427 244.088 45.6373 243.902 45.32C243.715 45.0027 243.622 44.6853 243.622 44.368L243.426 37.144L239.17 37.564C238.815 37.6013 238.507 37.4147 238.246 37.004C237.984 36.5933 237.872 36.164 237.91 35.716C237.947 35.268 238.171 35.0253 238.582 34.988C241.699 34.6893 246.375 34.232 252.61 33.616Z" fill="#161616"></path></svg> 