<?xml version="1.0" encoding="UTF-8"?> <svg xmlns="http://www.w3.org/2000/svg" width="40" height="40" viewBox="0 0 40 40" fill="none"><rect width="40" height="40" rx="10.9091" fill="#F8F8F8"></rect><path fill-rule="evenodd" clip-rule="evenodd" d="M16.0349 9.42216C14.6649 9.47955 13.723 9.6531 12.9302 9.99427C12.1882 10.3136 11.7477 10.6078 11.2006 11.1493C10.4588 11.8836 9.99655 12.7088 9.70632 13.8169C9.45033 14.7943 9.39321 15.9197 9.39258 19.9958C9.39196 24.0043 9.44663 25.1431 9.68663 26.1203C10.285 28.5567 12.0729 30.1063 14.6994 30.4649C15.4541 30.5679 17.0337 30.6109 20.048 30.6106C22.851 30.6103 24.4674 30.5707 25.1949 30.4845C26.6814 30.3084 27.8473 29.7961 28.7623 28.9169C29.798 27.9218 30.3457 26.7297 30.5462 25.0343C30.6247 24.3703 30.624 15.5202 30.5453 14.8951C30.3857 13.6259 30.0043 12.5816 29.4084 11.7816C29.1121 11.384 28.4829 10.7802 28.0867 10.5133C27.1927 9.9112 26.1184 9.57688 24.7009 9.4596C24.0326 9.40432 17.1689 9.37467 16.0349 9.42216ZM25.0218 11.4243C26.2058 11.5995 26.8704 11.8946 27.5092 12.529C27.9234 12.9405 28.1549 13.3065 28.3563 13.869C28.6985 14.8249 28.7292 15.3308 28.7293 20.0166C28.7293 22.716 28.7142 24.0128 28.6773 24.451C28.5565 25.8887 28.27 26.6645 27.5945 27.3836C26.8958 28.1274 26.0171 28.4984 24.6593 28.623C23.9239 28.6904 17.847 28.7235 16.448 28.6676C15.8162 28.6424 15.1538 28.6015 14.9761 28.5769C14.1905 28.4678 13.4291 28.1913 12.9583 27.8441C12.6608 27.6248 12.1891 27.1138 12.0126 26.8198C11.6657 26.2418 11.4554 25.4251 11.3867 24.3888C11.2617 22.5065 11.3023 16.0439 11.4458 14.9749C11.5947 13.8651 11.9377 13.1203 12.59 12.4899C13.3072 11.7968 14.2455 11.4595 15.6998 11.3718C16.012 11.353 18.1369 11.3423 20.4218 11.348C23.9658 11.3569 24.6417 11.3681 25.0218 11.4243ZM25.1463 13.1968C24.6747 13.432 24.4532 13.7953 24.4522 14.3353C24.4515 14.7261 24.5448 14.9576 24.8096 15.222C25.074 15.4858 25.3064 15.5793 25.6979 15.5793C25.9776 15.5793 26.0677 15.561 26.2663 15.4637C26.6868 15.2575 26.9244 14.8956 26.9559 14.4132C26.9838 13.9866 26.8909 13.7362 26.5949 13.441C26.3197 13.1666 26.0813 13.0705 25.6764 13.0705C25.451 13.0705 25.3526 13.0939 25.1463 13.1968ZM19.0532 14.6303C17.9614 14.827 16.9959 15.339 16.179 16.1545C15.1011 17.2304 14.5787 18.4844 14.5787 19.9958C14.5787 20.9065 14.7501 21.6567 15.1306 22.4121C16.2918 24.7174 18.8509 25.8999 21.3416 25.2819C22.3192 25.0394 23.0775 24.6172 23.8109 23.9073C24.4718 23.2675 24.9165 22.5705 25.1953 21.7375C25.396 21.1378 25.4694 20.6714 25.4694 19.9958C25.4694 19.3242 25.396 18.8538 25.1997 18.2678C24.9325 17.4697 24.5462 16.8389 23.9449 16.2189C23.124 15.3723 22.0978 14.8239 20.9669 14.6275C20.5052 14.5473 19.5058 14.5487 19.0532 14.6303ZM20.6986 16.5294C22.6037 16.8945 23.8654 18.76 23.4993 20.6703C23.2771 21.8296 22.4248 22.8568 21.3365 23.2768C20.8051 23.4819 20.4962 23.5312 19.8818 23.5091C19.4459 23.4933 19.2736 23.4679 18.9886 23.3771C17.7277 22.9756 16.812 21.9633 16.5523 20.6839C16.4523 20.1913 16.4912 19.4252 16.64 18.9591C17.0339 17.7246 18.076 16.7801 19.3162 16.5334C19.6861 16.4598 20.326 16.458 20.6986 16.5294Z" fill="#0E7F5C"></path></svg> 