<?xml version="1.0" encoding="UTF-8"?> <svg xmlns="http://www.w3.org/2000/svg" width="175" height="45" viewBox="0 0 175 45" fill="none"><path d="M160.439 30.4556C162.172 30.4556 163.497 29.9234 164.413 28.8589C165.328 27.7697 165.786 25.9751 165.786 23.4749V16.5312H171.727V35.2827H165.786V33.0177L166.9 29.6758H165.415C165.019 31.4581 164.214 32.9063 163.002 34.0202C161.789 35.1094 160.229 35.654 158.323 35.654C155.897 35.654 154.003 34.8743 152.642 33.3147C151.305 31.7552 150.637 29.5397 150.637 26.6682V16.5312H156.578V25.7399C156.578 27.4479 156.862 28.6609 157.432 29.3788C158.026 30.0967 159.028 30.4556 160.439 30.4556Z" fill="#0B5D51"></path><path d="M145.165 12.9259L145.041 14.4398L142.938 15.87L140.734 17.8157L135.161 22.2655L150.715 35.0204H142.151L131.355 25.9978V35.0204H125.5V9.10547H131.355V18.5333L140.366 11.242H144.648L145.165 12.9259Z" fill="#0B5D51"></path><path d="M137.578 19.9965C137.234 17.6322 138.378 15.8323 138.047 13.473C138.047 13.473 138.047 13.1625 138.917 12.4843C139.786 11.8061 140.9 10.6461 140.9 10.6461L139.869 9.10547H147.213L145.752 16.6393L144.358 15.0776C142.862 16.1937 141.638 17.1378 140.66 17.8707C140.368 18.0911 139.293 17.9749 138.917 18.6708C138.47 19.1127 137.606 19.6541 137.578 19.9965Z" fill="#0B5D51"></path><path d="M105.82 35.2845V19.355C105.82 18.3401 106.093 17.5603 106.637 17.0158C107.207 16.4712 107.999 16.2112 109.014 16.236L121.252 16.236V21.4344L111.761 21.5087V35.2845H105.82Z" fill="#374539"></path><path d="M82.0869 25.8886C82.0869 22.7448 83.0771 20.3436 85.0574 18.6851C87.0378 17.0018 89.5751 16.1602 92.6694 16.1602C95.7637 16.1602 98.2887 17.0018 100.244 18.6851C102.225 20.3436 103.215 22.7448 103.215 25.8886C103.215 29.0324 102.225 31.446 100.244 33.1293C98.2887 34.8126 95.7637 35.6542 92.6694 35.6542C89.5751 35.6542 87.0378 34.825 85.0574 33.1664C83.0771 31.4831 82.0869 29.0572 82.0869 25.8886ZM88.028 25.8886C88.028 27.4234 88.4364 28.5745 89.2533 29.3419C90.0702 30.0845 91.2089 30.4558 92.6694 30.4558C94.1052 30.4558 95.2315 30.0845 96.0484 29.3419C96.8653 28.5745 97.2737 27.4234 97.2737 25.8886C97.2737 24.3786 96.8653 23.2523 96.0484 22.5097C95.2315 21.7423 94.1052 21.3586 92.6694 21.3586C91.2089 21.3586 90.0702 21.7423 89.2533 22.5097C88.4364 23.2523 88.028 24.3786 88.028 25.8886Z" fill="#374539"></path><path d="M80.2299 30.1216C80.2299 33.81 77.3212 35.6542 71.504 35.6542C68.1621 35.6542 65.6743 35.0354 64.0405 33.7977C62.4315 32.5352 61.627 30.7652 61.627 28.4878H67.568C67.568 30.2949 68.9419 31.1985 71.6896 31.1985C73.4224 31.1985 74.2888 30.7776 74.2888 29.936C74.2888 29.5152 74.0784 29.1933 73.6576 28.9706C73.2368 28.7478 72.3209 28.4012 70.9099 27.9309C70.6128 27.8319 70.39 27.7576 70.2415 27.7081C70.1177 27.6586 69.6845 27.5224 68.9419 27.2996C68.1992 27.0521 67.7165 26.8912 67.4937 26.8169C67.2957 26.7427 66.8873 26.5818 66.2684 26.3342C65.6495 26.0867 65.2287 25.8763 65.0059 25.703C64.7831 25.5297 64.4613 25.2822 64.0405 24.9603C63.6197 24.6385 63.3226 24.3291 63.1493 24.0321C63.0008 23.7102 62.8523 23.3266 62.7038 22.881C62.5552 22.4354 62.481 21.9527 62.481 21.4328C62.481 19.7743 63.1989 18.4871 64.6346 17.5712C66.0704 16.6305 68.0755 16.1602 70.6499 16.1602C73.6452 16.1602 75.8855 16.8038 77.3707 18.091C78.856 19.3535 79.5986 20.9749 79.5986 22.9552H73.6576C73.6576 22.2621 73.3977 21.7051 72.8778 21.2843C72.358 20.8387 71.603 20.6159 70.6128 20.6159C69.1523 20.6159 68.422 20.9749 68.422 21.6928C68.422 22.0888 68.7562 22.4478 69.4246 22.7696C70.1177 23.0666 71.3926 23.5122 73.2491 24.1063C75.6998 24.8985 77.3212 25.5668 78.1134 26.1114C79.5244 27.0521 80.2299 28.3888 80.2299 30.1216Z" fill="#374539"></path><path d="M48.0947 30.4556C49.8275 30.4556 51.1519 29.9234 52.0678 28.8589C52.9837 27.7697 53.4417 25.9751 53.4417 23.4749V16.5312H59.3827V35.2827H53.4417V33.0177L54.5556 29.6758H53.0704C52.6743 31.4581 51.8698 32.9063 50.6568 34.0202C49.4438 35.1094 47.8843 35.654 45.9782 35.654C43.5523 35.654 41.6586 34.8743 40.2971 33.3147C38.9604 31.7552 38.292 29.5397 38.292 26.6682V16.5312H44.2331V25.7399C44.2331 27.4479 44.5177 28.6609 45.0871 29.3788C45.6812 30.0967 46.6837 30.4556 48.0947 30.4556Z" fill="#374539"></path><path d="M2.80176 35.2832V9.10547H14.4982L18.3228 33.798H19.808L23.6326 9.10547H35.329V35.2832H29.388V14.3039V10.6442L28.7127 10.6262L24.8208 35.2832H13.31L9.27667 10.6262H8.69649L8.74281 14.3039V35.2832H2.80176Z" fill="#374539"></path></svg> 