<?xml version="1.0" standalone="no"?>
<!DOCTYPE svg PUBLIC "-//W3C//DTD SVG 20010904//EN"
 "http://www.w3.org/TR/2001/REC-SVG-20010904/DTD/svg10.dtd">
<svg version="1.0" xmlns="http://www.w3.org/2000/svg"
 width="1024.000000pt" height="1024.000000pt" viewBox="0 0 1024.000000 1024.000000"
 preserveAspectRatio="xMidYMid meet">

<g transform="translate(0.000000,1024.000000) scale(0.100000,-0.100000)"
fill="#000000" stroke="none">
<path d="M4622 8155 c-143 -39 -231 -152 -240 -307 l-5 -78 -198 0 c-110 0
-199 -2 -199 -5 0 -3 107 -113 237 -245 l237 -240 1123 0 1123 0 0 113 c0 81
-5 125 -17 161 -25 71 -98 147 -175 182 l-63 29 -291 3 -291 3 -6 79 c-9 137
-84 242 -209 293 -51 21 -66 22 -513 24 -376 2 -470 0 -513 -12z m937 -291
c12 -15 21 -41 21 -60 l0 -34 -466 0 -466 0 7 38 c4 20 16 47 28 60 l20 22
418 0 418 0 20 -26z"/>
<path d="M3547 7485 c-3 -53 -3 -121 0 -150 l6 -55 157 0 156 0 -151 150 c-83
83 -153 150 -156 150 -4 0 -9 -43 -12 -95z"/>
<path d="M3736 7109 c-19 -15 -26 -30 -26 -55 0 -32 52 -525 85 -809 8 -71 26
-238 40 -370 66 -620 107 -964 121 -1008 23 -69 98 -147 176 -182 l63 -29 665
1 c366 1 686 2 711 2 l45 1 43 138 c42 135 43 140 27 170 -67 131 -111 310
-122 497 l-6 120 -153 153 c-84 83 -156 152 -159 152 -3 0 -6 -177 -6 -394 l0
-394 -32 -31 c-56 -55 -151 -51 -201 8 l-24 29 -6 528 -6 528 -246 246 -246
247 6 -66 c3 -36 19 -248 35 -471 17 -223 37 -493 45 -600 28 -381 29 -391 7
-426 -36 -57 -117 -79 -187 -50 -63 27 -62 23 -100 512 -19 247 -46 591 -60
764 -35 430 -35 460 0 510 15 22 33 40 39 40 6 0 -48 59 -119 130 l-130 130
-126 0 c-113 0 -129 -2 -153 -21z"/>
<path d="M4620 7122 c0 -4 80 -87 178 -185 l179 -179 13 31 c21 53 64 81 122
81 58 0 98 -20 123 -62 15 -26 16 -46 10 -165 l-7 -136 223 -223 224 -224 12
132 c6 73 19 232 28 353 11 150 22 231 33 254 22 48 65 71 133 71 65 0 97 -19
123 -74 15 -31 14 -48 -4 -227 -11 -107 -20 -200 -20 -207 0 -8 20 4 44 25 64
57 228 164 339 223 53 28 97 55 97 58 0 4 11 92 25 196 30 227 30 221 5 246
-20 20 -33 20 -950 20 -511 0 -930 -3 -930 -8z"/>
<path d="M6093 4950 c-46 -16 -150 -36 -227 -43 -26 -2 -30 -8 -47 -62 -10
-33 -25 -88 -33 -122 l-14 -62 36 -7 c21 -4 87 -3 147 3 84 8 122 16 161 36
63 32 111 80 137 136 l20 45 -51 48 c-28 26 -56 48 -64 47 -7 0 -36 -9 -65
-19z"/>
<path d="M941 2908 c-1 -216 1 -468 5 -560 l7 -168 103 0 104 0 -1 253 c-1
138 -4 312 -8 385 -3 72 -3 131 1 130 4 -2 95 -138 201 -303 106 -165 217
-337 247 -382 l55 -83 113 0 112 0 0 560 0 560 -110 0 -111 0 3 -390 c2 -215
1 -390 -2 -390 -5 0 -178 271 -391 612 l-104 167 -111 1 -111 0 -2 -392z"/>
<path d="M3000 3277 c0 -27 -40 -504 -70 -822 -11 -121 -20 -232 -20 -247 l0
-28 105 0 c101 0 105 1 109 23 2 12 17 184 31 382 15 198 29 361 30 363 4 5
20 -31 145 -330 l103 -248 76 0 76 0 19 48 c10 26 47 112 81 192 34 80 82 192
106 249 24 57 44 99 46 95 3 -11 39 -421 55 -626 l12 -148 108 0 108 0 0 33
c0 17 -7 102 -15 187 -9 85 -29 297 -45 470 -16 173 -32 341 -36 373 l-7 58
-120 -3 -119 -3 -59 -140 c-119 -279 -202 -465 -209 -465 -4 0 -10 8 -13 18
-3 9 -38 91 -78 182 -39 91 -95 219 -123 285 l-52 120 -122 3 c-122 3 -122 3
-122 -21z"/>
<path d="M2333 3020 c-202 -40 -335 -231 -320 -460 7 -112 35 -186 98 -254 86
-94 178 -136 300 -136 163 0 295 81 362 222 100 212 21 484 -170 586 -86 45
-179 60 -270 42z m177 -209 c19 -15 46 -50 60 -77 21 -42 25 -62 25 -144 -1
-78 -4 -102 -22 -137 -28 -51 -87 -101 -131 -109 -76 -15 -166 47 -197 135
-19 56 -19 165 1 223 44 130 172 182 264 109z"/>
<path d="M5421 3019 c-102 -17 -198 -94 -221 -178 -15 -55 -12 -132 9 -176 35
-78 102 -117 246 -145 102 -20 154 -66 139 -125 -17 -68 -177 -74 -307 -12
-66 31 -77 33 -81 19 -25 -93 -36 -156 -28 -164 27 -27 151 -61 245 -66 220
-11 357 66 389 220 10 49 9 65 -6 113 -30 96 -103 146 -256 175 -116 22 -163
63 -141 122 22 59 133 69 265 23 43 -15 79 -25 80 -23 1 1 9 38 17 82 l16 78
-46 20 c-51 22 -178 48 -231 46 -19 0 -59 -4 -89 -9z"/>
<path d="M6245 3016 c-112 -27 -195 -84 -250 -171 -144 -227 -66 -529 165
-639 60 -29 73 -31 175 -31 102 0 114 2 175 31 142 68 227 190 237 340 3 43 0
105 -6 136 -32 172 -171 311 -336 338 -74 12 -97 12 -160 -4z m137 -176 c151
-42 188 -344 57 -455 -45 -37 -77 -48 -127 -40 -90 13 -151 100 -159 225 -6
85 5 133 43 192 33 52 67 72 144 87 3 0 21 -4 42 -9z"/>
<path d="M7214 2990 c-28 -16 -66 -48 -83 -71 l-31 -43 0 67 0 67 -105 0 -105
0 0 -415 0 -415 110 0 110 0 0 269 0 268 44 41 c52 48 110 67 178 58 l48 -7 0
106 0 105 -57 0 c-46 0 -69 -6 -109 -30z"/>
<path d="M4272 2678 c3 -322 4 -334 25 -374 52 -97 143 -140 277 -132 79 5
161 41 197 86 l19 25 0 -52 0 -51 110 0 110 0 0 415 0 415 -110 0 -110 0 0
-298 c0 -274 -1 -300 -18 -315 -54 -49 -187 -64 -235 -27 -15 12 -31 38 -37
58 -5 21 -10 154 -10 310 l0 272 -111 0 -110 0 3 -332z"/>
<path d="M7760 2715 c0 -170 4 -315 11 -344 15 -71 59 -134 116 -168 44 -26
56 -28 153 -28 96 0 109 2 150 27 25 15 55 36 67 48 12 11 25 20 28 20 3 0 5
-20 5 -45 l0 -45 105 0 105 0 0 415 0 415 -105 0 -105 0 0 -291 0 -290 -32
-30 c-43 -39 -88 -52 -159 -47 -70 5 -96 25 -109 84 -5 21 -10 159 -10 307 l0
267 -110 0 -110 0 0 -295z"/>
<path d="M8655 2977 c-4 -18 -5 -56 -3 -85 l4 -52 184 -4 c102 -3 186 -5 188
-5 2 -1 -83 -114 -188 -252 l-190 -252 0 -73 0 -74 340 0 340 0 0 90 0 90
-196 2 -196 3 164 220 c90 121 173 234 186 252 18 25 22 45 22 102 l0 71 -325
0 -324 0 -6 -33z"/>
<path d="M7452 2439 c-101 -21 -135 -159 -57 -227 83 -74 202 -37 220 68 17
103 -62 181 -163 159z"/>
</g>
</svg>
