<?xml version="1.0" encoding="UTF-8"?> <svg xmlns="http://www.w3.org/2000/svg" width="26" height="26" viewBox="0 0 26 26" fill="none"><rect width="26" height="26" rx="8" fill="#258476"></rect><g clip-path="url(#clip0_3110_511)"><path d="M19.4966 9.47521C19.497 9.61871 19.4689 9.76086 19.414 9.89344C19.3591 10.026 19.2784 10.1464 19.1767 10.2476L12.289 17.1352C11.9792 17.4442 11.5596 17.6176 11.122 17.6176C10.6845 17.6176 10.2649 17.4442 9.95504 17.1352L6.82267 14.0028C6.72065 13.9015 6.63963 13.7811 6.58426 13.6484C6.52889 13.5157 6.50026 13.3734 6.5 13.2297C6.49975 13.0859 6.52788 12.9435 6.58278 12.8106C6.63769 12.6777 6.71828 12.557 6.81994 12.4553C6.92161 12.3537 7.04234 12.2731 7.17522 12.2182C7.30809 12.1633 7.4505 12.1351 7.59427 12.1354C7.73805 12.1357 7.88035 12.1643 8.01303 12.2197C8.14572 12.275 8.26616 12.3561 8.36746 12.4581L11.122 15.2127L17.632 8.70278C17.7847 8.55 17.9794 8.44596 18.1912 8.4038C18.4031 8.36165 18.6228 8.38329 18.8224 8.46597C19.022 8.54865 19.1926 8.68868 19.3126 8.86832C19.4326 9.04797 19.4966 9.25917 19.4966 9.47521Z" fill="white"></path></g><defs><clipPath id="clip0_3110_511"><rect width="13" height="13" fill="white" transform="translate(6.5 6.5)"></rect></clipPath></defs></svg> 