<?xml version="1.0" encoding="UTF-8"?> <svg xmlns="http://www.w3.org/2000/svg" width="54" height="54" viewBox="0 0 54 54" fill="none"><path d="M33.9283 25.4311L32.2746 22.5667C32.2203 22.4731 32.1943 22.3659 32.1995 22.2579C32.2047 22.1498 32.2409 22.0456 32.3039 21.9576C32.3671 21.8705 32.454 21.8034 32.5543 21.7642C32.6546 21.7251 32.7639 21.7155 32.8695 21.7367C34.8036 22.1211 37.6606 22.6887 40.3286 23.2232L44.9987 24.1486C45.078 24.1637 45.1531 24.1958 45.219 24.2425C45.2848 24.2893 45.3397 24.3497 45.3801 24.4196C45.4168 24.4838 45.4405 24.5546 45.4498 24.628C45.4591 24.7014 45.4539 24.776 45.4343 24.8473L45.4241 24.8853L41.4464 36.6241C41.4114 36.7266 41.3475 36.8168 41.2624 36.8839C41.1773 36.9509 41.0747 36.9919 40.9668 37.002C40.8595 37.0134 40.7512 36.9936 40.6548 36.9451C40.5584 36.8965 40.478 36.8213 40.4232 36.7283L38.5014 33.3439C27.0519 36.9752 14.765 31.9369 10.3261 21.7202C10.2727 21.5957 10.2662 21.456 10.3076 21.327C10.349 21.198 10.4355 21.0883 10.5514 21.0181C10.6673 20.9478 10.8046 20.9218 10.9381 20.9447C11.0716 20.9677 11.1924 21.0381 11.2781 21.143C16.823 28.0358 26.6751 29.8666 33.9283 25.4311Z" fill="#118352"></path></svg> 