<?xml version="1.0" encoding="UTF-8"?> <svg xmlns="http://www.w3.org/2000/svg" width="20" height="20" viewBox="0 0 20 20" fill="none"><path d="M17.9136 14.607C17.1732 13.0587 15.911 12.049 14.0935 11.5946C13.8243 11.5273 13.5382 11.5946 13.3194 11.7797L11.8216 13.0082C11.5355 13.2438 11.1148 13.2775 10.7951 13.0755C9.21317 12.0995 7.91736 10.8037 6.94129 9.22175C6.73934 8.90201 6.773 8.48129 7.0086 8.1952L8.2371 6.69744C8.42222 6.47866 8.48953 6.19257 8.42222 5.92331C7.95101 4.08898 6.94129 2.82682 5.39304 2.08635C5.14061 1.96855 4.85452 1.96855 4.60209 2.10318C3.82797 2.5239 3.07067 2.99511 2.36386 3.5168C2.0946 3.71874 1.95997 4.05532 2.01046 4.39189C2.51532 7.40424 4.14771 10.5681 6.78983 13.2102C9.43195 15.8523 12.5958 17.4678 15.6081 17.9895C15.9447 18.04 16.2813 17.9054 16.4832 17.6361C17.0049 16.9293 17.4761 16.1889 17.8968 15.3979C18.0314 15.1455 18.0314 14.8594 17.9136 14.607Z" fill="#0E7F5C"></path></svg> 