<?xml version="1.0" encoding="UTF-8"?> <svg xmlns="http://www.w3.org/2000/svg" width="32" height="32" viewBox="0 0 32 32" fill="none"><path fill-rule="evenodd" clip-rule="evenodd" d="M16.4975 22.9307L11.8796 27.5487C11.3415 28.0868 10.4637 28.0868 9.92558 27.5487L1.34494 18.9681C0.806896 18.4299 0.806896 17.5522 1.34494 17.0141L15.1435 3.21554C15.4308 2.92829 15.788 2.79132 16.1936 2.81272L22.7454 3.15926C23.5864 3.20374 24.3339 3.36876 24.9293 3.96428C25.5248 4.5596 25.6897 5.30727 25.7343 6.14818L25.9385 10.0088C26.0156 10.0123 26.0932 10.014 26.1713 10.014C28.2806 10.014 30.0438 8.74891 30.0438 7.10241C30.0438 5.49469 28.3628 4.25071 26.3201 4.19292C26.157 3.85353 25.9381 3.5373 25.6472 3.24635C25.6322 3.23135 25.6171 3.21648 25.6019 3.20186C25.7887 3.18448 25.9787 3.17557 26.1713 3.17557C28.9009 3.17557 31.0591 4.97165 31.0591 7.10241C31.0591 9.23305 28.9009 11.0293 26.1713 11.0293C23.4418 11.0293 21.2836 9.23311 21.2836 7.10241C21.2836 6.82226 21.511 6.5948 21.7912 6.5948C22.0713 6.5948 22.2988 6.82226 22.2988 7.10241C22.2988 7.55236 22.4305 7.97382 22.665 8.34872C23.057 8.07346 23.3132 7.61786 23.3132 7.10241C23.3132 6.26188 22.6318 5.58047 21.7912 5.58047C21.0272 5.58047 20.3947 6.14348 20.2858 6.87716C20.2742 6.94555 20.2684 7.02047 20.2684 7.10247C20.2684 7.42166 20.3063 7.73651 20.3791 8.0434C20.8954 10.2202 23.1629 11.9934 26.0461 12.0434L26.0809 12.7001C26.1024 13.1056 25.9653 13.4629 25.6782 13.7501L25.6436 13.7846C24.8999 13.338 24.0337 13.0814 23.1118 13.0814C21.9746 13.0814 20.9217 13.472 20.079 14.1279C19.6368 11.5002 17.3408 9.48648 14.5909 9.48648C11.5266 9.48648 9.02594 11.9871 9.02594 15.0515C9.02594 18.1158 11.5266 20.6165 14.5909 20.6165C15.27 20.6165 15.9213 20.4937 16.5239 20.2692C16.5065 20.3676 16.4975 20.4689 16.4975 20.5723V22.9307ZM14.089 11.869V11.5294C14.089 11.2523 14.3139 11.0274 14.5909 11.0274C14.8679 11.0274 15.0929 11.2523 15.0929 11.5294V11.8633C15.7578 11.9972 16.376 12.4142 16.6919 13.1657C16.7992 13.4211 16.6791 13.7156 16.4236 13.823C16.1683 13.9303 15.8737 13.8101 15.7664 13.5547C15.4641 12.8357 14.6592 12.688 14.0807 12.9157C13.7434 13.0485 13.4739 13.3214 13.4929 13.7176C13.5083 14.029 13.7087 14.2075 13.9488 14.3249C14.1733 14.4347 14.4329 14.4964 14.6773 14.5366C15.6511 14.6959 16.7239 15.1352 16.8652 16.2931L16.8653 16.2938C17.0031 17.435 16.0637 18.0846 15.0929 18.2472V18.5735C15.0929 18.8506 14.8679 19.0755 14.5909 19.0755C14.3139 19.0755 14.089 18.8506 14.089 18.5735V18.24C13.2591 18.0837 12.5378 17.5488 12.3189 16.6695C12.252 16.4007 12.4159 16.1281 12.6848 16.0612C12.9536 15.9943 13.2262 16.1582 13.2931 16.427C13.4444 17.0349 14.0577 17.2975 14.6515 17.2836C14.9693 17.276 15.3229 17.1965 15.5836 17.0168C15.7734 16.886 15.9018 16.6899 15.8687 16.4144C15.8259 16.0648 15.5884 15.8717 15.3114 15.7461C15.0623 15.633 14.7797 15.5707 14.5152 15.5274L14.5147 15.5273C13.5635 15.3707 12.5455 14.8972 12.4902 13.7664V13.7661C12.4486 12.904 12.9789 12.2706 13.7129 11.9816C13.8337 11.934 13.9597 11.8964 14.089 11.869ZM27.098 18.8297H25.2729V18.1334C25.2729 16.9286 24.297 15.938 23.1118 15.938C21.9266 15.938 20.9507 16.9286 20.9507 18.1334V18.8297H19.1239V18.1334C19.1239 15.9071 20.9186 14.0853 23.1118 14.0853C25.305 14.0853 27.098 15.9071 27.098 18.1334V18.8297ZM18.2308 19.8336H27.9928C28.3946 19.8336 28.7205 20.1661 28.7205 20.5723V28.4492C28.7205 28.8571 28.3946 29.1879 27.9928 29.1879H18.2308C17.829 29.1879 17.5014 28.8571 17.5014 28.4492V20.5723C17.5014 20.1661 17.829 19.8336 18.2308 19.8336ZM20.8289 24.7495L22.1911 26.1117C22.3871 26.3077 22.7049 26.3077 22.901 26.1117L25.393 23.6197C25.5889 23.4238 25.5889 23.1057 25.393 22.9098C25.1971 22.7139 24.879 22.7139 24.6831 22.9098L22.5461 25.0469L21.5388 24.0396C21.3429 23.8437 21.0248 23.8437 20.8289 24.0396C20.633 24.2355 20.633 24.5536 20.8289 24.7495Z" fill="#0B5D51"></path></svg> 