<?xml version="1.0" encoding="UTF-8"?> <svg xmlns="http://www.w3.org/2000/svg" width="57" height="57" viewBox="0 0 57 57" fill="none"><g opacity="0.21" clip-path="url(#clip0_3323_593)"><path d="M26.6624 57.0011C21.3997 57.02 16.25 55.4754 11.8664 52.5633C7.48281 49.6511 4.06286 45.5027 2.04032 40.6442C0.0177853 35.7856 -0.516218 30.4358 0.506045 25.2734C1.52831 20.1109 4.06078 15.3683 7.78225 11.6472C12.3912 7.01188 18.5574 4.25335 25.0849 3.90652C25.2756 3.89577 25.4665 3.92405 25.6459 3.98962C25.8253 4.0552 25.9894 4.1567 26.1282 4.28791C26.267 4.41912 26.3776 4.57728 26.4532 4.7527C26.5288 4.92813 26.5678 5.11713 26.5678 5.30814V12.4109C26.5666 12.7637 26.4326 13.1031 26.1924 13.3616C25.9523 13.6201 25.6237 13.7787 25.2719 13.8058C16.6417 14.4738 9.83291 21.7457 9.89971 30.5607C9.96985 39.6295 17.3743 47.0373 26.4431 47.1041C35.258 47.1709 42.5278 40.362 43.1979 31.7319C43.2238 31.3785 43.3823 31.048 43.6416 30.8067C43.9009 30.5653 44.242 30.4309 44.5962 30.4304H51.699C51.8898 30.4305 52.0786 30.4694 52.2539 30.5448C52.4291 30.6203 52.5872 30.7306 52.7184 30.8692C52.8495 31.0078 52.9511 31.1716 53.0168 31.3508C53.0825 31.5299 53.111 31.7206 53.1006 31.9111C52.7234 38.6756 49.7763 45.0405 44.8619 49.7042C39.9476 54.3679 33.4374 56.9781 26.6624 57.0011Z" fill="white"></path><path d="M55.5963 26.4975H48.3823C48.0265 26.4972 47.6841 26.3621 47.424 26.1194C47.1639 25.8766 47.0055 25.5443 46.9807 25.1894C46.3572 17.0346 39.9213 10.5041 31.7744 9.87063C31.4207 9.84455 31.09 9.68591 30.8483 9.42645C30.6065 9.16699 30.4717 8.82584 30.4707 8.47124V1.36851C30.4709 1.17774 30.5099 0.989005 30.5854 0.81381C30.6609 0.638616 30.7713 0.480631 30.9098 0.349487C31.0484 0.218342 31.2122 0.116785 31.3912 0.0510064C31.5703 -0.0147722 31.7609 -0.0433943 31.9514 -0.0331151C38.4763 0.330791 44.6383 3.08668 49.2594 7.70771C53.8804 12.3287 56.6363 18.4907 57.0002 25.0157C57.0106 25.2065 56.9821 25.3974 56.9162 25.5767C56.8504 25.7561 56.7486 25.9201 56.6173 26.0588C56.4859 26.1975 56.3275 26.3079 56.152 26.3834C55.9765 26.4588 55.7874 26.4976 55.5963 26.4975Z" fill="white"></path><path d="M31.5688 20.1953H31.5488C31.314 20.1983 31.084 20.2613 30.8803 20.3782C30.6767 20.4951 30.5064 20.6621 30.3854 20.8633C27.0689 26.04 23.5855 31.2391 20.4215 36.2577C19.9907 36.9413 20.1833 37.8954 20.8446 38.3952C21.5059 38.8951 22.3787 38.7515 22.8062 38.0612C25.9579 33.0103 29.428 27.8035 32.7311 22.6423C33.398 21.6147 32.7066 20.1953 31.5688 20.1953Z" fill="white"></path><path d="M35.8401 31.4038C34.9328 30.4463 33.8362 29.9688 32.5815 29.9688C31.3268 29.9688 30.2369 30.4541 29.3218 31.406C28.4067 32.3579 27.9569 33.5112 27.967 34.8761C27.977 36.241 28.4368 37.4211 29.3285 38.3718C30.2202 39.3225 31.2845 39.8046 32.5359 39.8013C33.8072 39.8013 34.8893 39.3192 35.7933 38.374C36.6973 37.4288 37.1693 36.2588 37.186 34.865C37.206 34.2272 37.0971 33.5919 36.8658 32.9972C36.6346 32.4025 36.2857 31.8605 35.8401 31.4038ZM33.746 36.2944C33.6057 36.4705 33.4271 36.6121 33.2238 36.7086C33.0204 36.8051 32.7977 36.8538 32.5726 36.8511C32.3457 36.8569 32.1204 36.8119 31.9132 36.7194C31.7059 36.627 31.522 36.4894 31.3747 36.3167C31.0652 35.956 30.9082 35.4862 30.9071 34.8917C30.8866 34.3924 31.0583 33.9043 31.387 33.5279C31.5353 33.3597 31.7178 33.225 31.9222 33.1327C32.1266 33.0404 32.3483 32.9927 32.5726 32.9927C32.7969 32.9927 33.0186 33.0404 33.223 33.1327C33.4275 33.225 33.6099 33.3597 33.7583 33.5279C34.0767 33.9086 34.2411 34.3947 34.2191 34.8906C34.2154 35.4554 34.0577 35.9233 33.746 36.2944Z" fill="white"></path><path d="M23.4287 21.3574C22.5593 20.4211 21.5161 19.9781 20.2781 20.0159C19.0402 20.0538 17.9558 20.5725 17.0029 21.5244C16.0499 22.4763 15.5411 23.6129 15.4955 24.931C15.4498 26.2492 15.8773 27.3803 16.7646 28.2965C17.1913 28.7352 17.7018 29.0836 18.2658 29.321C18.8297 29.5585 19.4357 29.6801 20.0477 29.6786C20.6596 29.6772 21.265 29.5527 21.8278 29.3126C22.3907 29.0725 22.8995 28.7216 23.3241 28.2809C24.2325 27.3465 24.696 26.1831 24.7146 24.7908C24.7346 23.4415 24.3049 22.2937 23.4287 21.3574ZM21.2556 26.218C21.1083 26.3882 20.9267 26.5255 20.7228 26.6209C20.5188 26.7162 20.297 26.7675 20.0719 26.7714C19.8468 26.7753 19.6234 26.7317 19.4163 26.6434C19.2092 26.5552 19.023 26.4242 18.8698 26.2592C18.5659 25.9107 18.4245 25.4543 18.4357 24.8732C18.4345 24.3757 18.6205 23.8961 18.9567 23.5294C19.1066 23.3572 19.2912 23.2186 19.4984 23.1226C19.7056 23.0267 19.9307 22.9756 20.159 22.9728C20.3777 22.9616 20.5959 23.0014 20.7965 23.0891C20.997 23.1769 21.1744 23.3101 21.3146 23.4782C21.6141 23.8267 21.7599 24.2742 21.7477 24.8141C21.759 25.3262 21.5842 25.8251 21.2556 26.218Z" fill="white"></path></g><defs><clipPath id="clip0_3323_593"><rect width="57" height="57" fill="white"></rect></clipPath></defs></svg> 