<?xml version="1.0" encoding="UTF-8"?> <svg xmlns="http://www.w3.org/2000/svg" width="88" height="88" viewBox="0 0 88 88" fill="none"><rect width="88" height="88" rx="16" fill="url(#paint0_linear_3320_134)"></rect><path d="M32.6365 47.047H37.4095C37.4095 49.3657 37.9275 50.9813 38.9635 51.894C39.9995 52.782 41.7509 53.226 44.2175 53.226C46.2895 53.226 47.7819 52.9053 48.6945 52.264C49.6319 51.6227 50.1005 50.6237 50.1005 49.267C50.1005 46.7757 48.7069 45.53 45.9195 45.53H42.2935V41.386H45.9195C48.4602 41.386 49.7305 40.313 49.7305 38.167C49.7305 37.0077 49.3112 36.1443 48.4725 35.577C47.6339 34.985 46.2155 34.689 44.2175 34.689C41.8249 34.689 40.1475 35.0713 39.1855 35.836C38.2482 36.6007 37.7795 37.871 37.7795 39.647H33.0065C33.0065 36.5637 33.9932 34.282 35.9665 32.802C37.9645 31.2973 40.7149 30.545 44.2175 30.545C47.3749 30.545 49.8785 31.1617 51.7285 32.395C53.5785 33.6283 54.5035 35.3427 54.5035 37.538C54.5035 39.2153 54.0102 40.4363 53.0235 41.201C52.0615 41.9657 50.6432 42.5083 48.7685 42.829V44.05C49.7305 44.2227 50.5199 44.4077 51.1365 44.605C51.7779 44.8023 52.4069 45.1107 53.0235 45.53C53.6649 45.9247 54.1335 46.4797 54.4295 47.195C54.7255 47.9103 54.8735 48.7983 54.8735 49.859C54.8735 52.2763 53.8992 54.1387 51.9505 55.446C50.0265 56.7287 47.4489 57.37 44.2175 57.37C40.6409 57.37 37.8165 56.556 35.7445 54.928C33.6725 53.2753 32.6365 50.6483 32.6365 47.047Z" fill="white"></path><defs><linearGradient id="paint0_linear_3320_134" x1="64.5" y1="-10.5" x2="9" y2="112" gradientUnits="userSpaceOnUse"><stop stop-color="#0B5D51"></stop><stop offset="1" stop-color="#2F3937"></stop></linearGradient></defs></svg> 