<?xml version="1.0" encoding="UTF-8"?> <svg xmlns="http://www.w3.org/2000/svg" width="88" height="88" viewBox="0 0 88 88" fill="none"><rect width="88" height="88" rx="16" fill="url(#paint0_linear_3320_48)"></rect><path d="M33.0004 43.125C33.0004 38.8577 34.0858 35.7003 36.2564 33.653C38.4518 31.581 41.3254 30.545 44.8775 30.545C47.9115 30.545 50.3411 31.3097 52.1665 32.839C53.9918 34.3683 54.9045 36.5267 54.9045 39.314C54.9045 40.5227 54.7195 41.645 54.3495 42.681C54.0041 43.6923 53.5355 44.5927 52.9435 45.382C52.3514 46.1467 51.5621 46.862 50.5755 47.528C49.5888 48.1693 48.5651 48.7243 47.5044 49.193C46.4684 49.637 45.1981 50.0687 43.6935 50.488C42.2134 50.9073 40.7828 51.265 39.4014 51.561C38.0448 51.857 36.4538 52.1653 34.6284 52.486V53.707L37.6994 52.856H54.9045V57H33.3704V48.675C33.8884 48.601 34.3201 48.5393 34.6654 48.49C35.0108 48.4407 35.6398 48.3297 36.5524 48.157C37.4651 47.9843 38.2544 47.824 38.9204 47.676C39.5864 47.5033 40.4251 47.269 41.4364 46.973C42.4478 46.6523 43.3111 46.3317 44.0265 46.011C44.7665 45.6657 45.5435 45.2587 46.3574 44.79C47.1714 44.2967 47.8374 43.7787 48.3554 43.236C48.8735 42.6933 49.2928 42.0767 49.6134 41.386C49.9588 40.6707 50.1314 39.9183 50.1314 39.129C50.1314 37.7723 49.6998 36.6993 48.8364 35.91C47.9978 35.096 46.7028 34.689 44.9515 34.689C42.5834 34.689 40.7951 35.355 39.5864 36.687C38.3778 38.019 37.7734 40.165 37.7734 43.125H33.0004Z" fill="white"></path><defs><linearGradient id="paint0_linear_3320_48" x1="64.5" y1="-10.5" x2="9" y2="112" gradientUnits="userSpaceOnUse"><stop stop-color="#0B5D51"></stop><stop offset="1" stop-color="#2F3937"></stop></linearGradient></defs></svg> 