<?xml version="1.0" encoding="UTF-8"?> <svg xmlns="http://www.w3.org/2000/svg" width="16" height="16" viewBox="0 0 16 16" fill="none"><path d="M15 9H1C0.447719 9 0 8.55228 0 8C0 7.44772 0.447719 7 1 7H15C15.5523 7 16 7.44772 16 8C16 8.55228 15.5523 9 15 9Z" fill="#5B5B5B"></path><path d="M1 11.668H15C15.5523 11.668 16 12.1157 16 12.668C16 13.2203 15.5523 13.668 15 13.668H1C0.447719 13.668 0 13.2203 0 12.668C0 12.1157 0.447719 11.668 1 11.668Z" fill="#5B5B5B"></path><path d="M15 4.33594H1C0.447719 4.33594 0 3.88822 0 3.33594C0 2.78366 0.447719 2.33594 1 2.33594H15C15.5523 2.33594 16 2.78366 16 3.33594C16 3.88822 15.5523 4.33594 15 4.33594Z" fill="#5B5B5B"></path></svg> 