<?xml version="1.0" encoding="UTF-8"?> <svg xmlns="http://www.w3.org/2000/svg" width="40" height="40" viewBox="0 0 40 40" fill="none"><rect width="40" height="40" rx="10.9091" fill="#F8F8F8"></rect><path fill-rule="evenodd" clip-rule="evenodd" d="M28.9467 11.6229C28.7774 11.6817 24.3772 13.2939 19.1685 15.2054C13.335 17.3463 9.65546 18.7195 9.58696 18.7811C9.44077 18.9127 9.3618 19.175 9.40382 19.3896C9.47583 19.7572 9.50188 19.7688 12.232 20.6519C14.3201 21.3273 14.7421 21.4504 14.8249 21.4079C14.8793 21.3801 15.4836 21.0285 16.1679 20.6266C16.8521 20.2248 19.4355 18.7116 21.9088 17.2639C26.5221 14.5635 26.5545 14.5464 26.5545 14.807C26.5545 14.8621 25.0297 16.2368 22.2563 18.6824C19.8923 20.7669 17.9072 22.5233 17.8451 22.5855C17.7344 22.6963 17.7289 22.7419 17.5742 24.8639C17.463 26.3872 17.4299 27.0667 17.4625 27.1555C17.5172 27.3044 17.7261 27.4139 17.8714 27.3698C17.9278 27.3526 18.5927 26.7591 19.3489 26.0509C20.1051 25.3427 20.7416 24.7633 20.7633 24.7633C20.785 24.7633 21.9051 25.564 23.2523 26.5427C24.5995 27.5214 25.7764 28.36 25.8676 28.4063C26.2255 28.5879 26.7504 28.4447 26.9985 28.0977C27.0788 27.9855 27.501 26.2196 28.8536 20.3373C29.8167 16.149 30.6047 12.6617 30.6047 12.5877C30.6047 12.3162 30.4926 12.0827 30.251 11.8513C29.8782 11.4941 29.5052 11.4288 28.9467 11.6229Z" fill="#0E7F5C"></path></svg> 